<?xml version="1.0" encoding="UTF-8" standalone="no"?>
<svg
   xmlns:dc="http://purl.org/dc/elements/1.1/"
   xmlns:cc="http://creativecommons.org/ns#"
   xmlns:rdf="http://www.w3.org/1999/02/22-rdf-syntax-ns#"
   xmlns:svg="http://www.w3.org/2000/svg"
   xmlns="http://www.w3.org/2000/svg"
   viewBox="0 0 3200 3200"
   height="3200"
   width="3200"
   xml:space="preserve"
   id="svg2"
   version="1.1"><metadata
     id="metadata8"><rdf:RDF><cc:Work
         rdf:about=""><dc:format>image/svg+xml</dc:format><dc:type
           rdf:resource="http://purl.org/dc/dcmitype/StillImage" /></cc:Work></rdf:RDF></metadata><defs
     id="defs6"><clipPath
       id="clipPath20"
       clipPathUnits="userSpaceOnUse"><path
         id="path18"
         d="M 0,2400 H 2400 V 0 H 0 Z" /></clipPath><clipPath
       id="clipPath116"
       clipPathUnits="userSpaceOnUse"><path
         id="path114"
         d="M 0,0 H 2400 V 2400 H 0 Z" /></clipPath><clipPath
       id="clipPath196"
       clipPathUnits="userSpaceOnUse"><path
         id="path194"
         d="M 0,2400 H 2400 V 0 H 0 Z" /></clipPath></defs><g
     transform="matrix(1.3333333,0,0,-1.3333333,0,3200)"
     id="g10"><path
       id="path12"
       style="fill:#009fdb;fill-opacity:1;fill-rule:nonzero;stroke:none"
       d="M 0,0 H 2400 V 2400 H 0 Z" /><g
       id="g14"><g
         clip-path="url(#clipPath20)"
         id="g16"><g
           transform="translate(1200,2400)"
           id="g22"><path
             id="path24"
             style="fill:none;stroke:#ffffff;stroke-width:2;stroke-linecap:round;stroke-linejoin:round;stroke-miterlimit:10;stroke-dasharray:none;stroke-opacity:1"
             d="M 0,0 V -2400" /></g><g
           transform="translate(1400,2400)"
           id="g26"><path
             id="path28"
             style="fill:none;stroke:#ffffff;stroke-width:2;stroke-linecap:round;stroke-linejoin:round;stroke-miterlimit:10;stroke-dasharray:none;stroke-opacity:1"
             d="M 0,0 V -2400" /></g><g
           transform="translate(1600,2400)"
           id="g30"><path
             id="path32"
             style="fill:none;stroke:#ffffff;stroke-width:2;stroke-linecap:round;stroke-linejoin:round;stroke-miterlimit:10;stroke-dasharray:none;stroke-opacity:1"
             d="M 0,0 V -2400" /></g><g
           transform="translate(1800,2400)"
           id="g34"><path
             id="path36"
             style="fill:none;stroke:#ffffff;stroke-width:2;stroke-linecap:round;stroke-linejoin:round;stroke-miterlimit:10;stroke-dasharray:none;stroke-opacity:1"
             d="M 0,0 V -2400" /></g><g
           transform="translate(2000,2400)"
           id="g38"><path
             id="path40"
             style="fill:none;stroke:#ffffff;stroke-width:2;stroke-linecap:round;stroke-linejoin:round;stroke-miterlimit:10;stroke-dasharray:none;stroke-opacity:1"
             d="M 0,0 V -2400" /></g><g
           transform="translate(2200,2400)"
           id="g42"><path
             id="path44"
             style="fill:none;stroke:#ffffff;stroke-width:2;stroke-linecap:round;stroke-linejoin:round;stroke-miterlimit:10;stroke-dasharray:none;stroke-opacity:1"
             d="M 0,0 V -2400" /></g><g
           transform="translate(1000,2400)"
           id="g46"><path
             id="path48"
             style="fill:none;stroke:#ffffff;stroke-width:2;stroke-linecap:round;stroke-linejoin:round;stroke-miterlimit:10;stroke-dasharray:none;stroke-opacity:1"
             d="M 0,0 V -2400" /></g><g
           transform="translate(800,2400)"
           id="g50"><path
             id="path52"
             style="fill:none;stroke:#ffffff;stroke-width:2;stroke-linecap:round;stroke-linejoin:round;stroke-miterlimit:10;stroke-dasharray:none;stroke-opacity:1"
             d="M 0,0 V -2400" /></g><g
           transform="translate(600,2400)"
           id="g54"><path
             id="path56"
             style="fill:none;stroke:#ffffff;stroke-width:2;stroke-linecap:round;stroke-linejoin:round;stroke-miterlimit:10;stroke-dasharray:none;stroke-opacity:1"
             d="M 0,0 V -2400" /></g><g
           transform="translate(400,2400)"
           id="g58"><path
             id="path60"
             style="fill:none;stroke:#ffffff;stroke-width:2;stroke-linecap:round;stroke-linejoin:round;stroke-miterlimit:10;stroke-dasharray:none;stroke-opacity:1"
             d="M 0,0 V -2400" /></g><g
           transform="translate(200,2400)"
           id="g62"><path
             id="path64"
             style="fill:none;stroke:#ffffff;stroke-width:2;stroke-linecap:round;stroke-linejoin:round;stroke-miterlimit:10;stroke-dasharray:none;stroke-opacity:1"
             d="M 0,0 V -2400" /></g><g
           transform="translate(2400,1200)"
           id="g66"><path
             id="path68"
             style="fill:none;stroke:#ffffff;stroke-width:2;stroke-linecap:round;stroke-linejoin:round;stroke-miterlimit:10;stroke-dasharray:none;stroke-opacity:1"
             d="M 0,0 H -2400" /></g><g
           transform="translate(2400,1000)"
           id="g70"><path
             id="path72"
             style="fill:none;stroke:#ffffff;stroke-width:2;stroke-linecap:round;stroke-linejoin:round;stroke-miterlimit:10;stroke-dasharray:none;stroke-opacity:1"
             d="M 0,0 H -2400" /></g><g
           transform="translate(2400,800)"
           id="g74"><path
             id="path76"
             style="fill:none;stroke:#ffffff;stroke-width:2;stroke-linecap:round;stroke-linejoin:round;stroke-miterlimit:10;stroke-dasharray:none;stroke-opacity:1"
             d="M 0,0 H -2400" /></g><g
           transform="translate(2400,600)"
           id="g78"><path
             id="path80"
             style="fill:none;stroke:#ffffff;stroke-width:2;stroke-linecap:round;stroke-linejoin:round;stroke-miterlimit:10;stroke-dasharray:none;stroke-opacity:1"
             d="M 0,0 H -2400" /></g><g
           transform="translate(2400,400)"
           id="g82"><path
             id="path84"
             style="fill:none;stroke:#ffffff;stroke-width:2;stroke-linecap:round;stroke-linejoin:round;stroke-miterlimit:10;stroke-dasharray:none;stroke-opacity:1"
             d="M 0,0 H -2400" /></g><g
           transform="translate(2400,200)"
           id="g86"><path
             id="path88"
             style="fill:none;stroke:#ffffff;stroke-width:2;stroke-linecap:round;stroke-linejoin:round;stroke-miterlimit:10;stroke-dasharray:none;stroke-opacity:1"
             d="M 0,0 H -2400" /></g><g
           transform="translate(2400,1400)"
           id="g90"><path
             id="path92"
             style="fill:none;stroke:#ffffff;stroke-width:2;stroke-linecap:round;stroke-linejoin:round;stroke-miterlimit:10;stroke-dasharray:none;stroke-opacity:1"
             d="M 0,0 H -2400" /></g><g
           transform="translate(2400,1600)"
           id="g94"><path
             id="path96"
             style="fill:none;stroke:#ffffff;stroke-width:2;stroke-linecap:round;stroke-linejoin:round;stroke-miterlimit:10;stroke-dasharray:none;stroke-opacity:1"
             d="M 0,0 H -2400" /></g><g
           transform="translate(2400,1800)"
           id="g98"><path
             id="path100"
             style="fill:none;stroke:#ffffff;stroke-width:2;stroke-linecap:round;stroke-linejoin:round;stroke-miterlimit:10;stroke-dasharray:none;stroke-opacity:1"
             d="M 0,0 H -2400" /></g><g
           transform="translate(2400,2000)"
           id="g102"><path
             id="path104"
             style="fill:none;stroke:#ffffff;stroke-width:2;stroke-linecap:round;stroke-linejoin:round;stroke-miterlimit:10;stroke-dasharray:none;stroke-opacity:1"
             d="M 0,0 H -2400" /></g><g
           transform="translate(2400,2200)"
           id="g106"><path
             id="path108"
             style="fill:none;stroke:#ffffff;stroke-width:2;stroke-linecap:round;stroke-linejoin:round;stroke-miterlimit:10;stroke-dasharray:none;stroke-opacity:1"
             d="M 0,0 H -2400" /></g></g></g><g
       id="g110"><g
         clip-path="url(#clipPath116)"
         id="g112"><g
           transform="translate(2000,-600)"
           id="g118"><path
             id="path120"
             style="fill:none;stroke:#ffffff;stroke-width:2;stroke-linecap:round;stroke-linejoin:round;stroke-miterlimit:10;stroke-dasharray:none;stroke-opacity:1"
             d="m 0,0 c 0,-441.828 -358.174,-800 -800,-800 -441.828,0 -800,358.172 -800,800 0,441.826 358.172,800 800,800 C -358.174,800 0,441.826 0,0 Z" /></g><g
           transform="translate(2200,-600)"
           id="g122"><path
             id="path124"
             style="fill:none;stroke:#ffffff;stroke-width:2;stroke-linecap:round;stroke-linejoin:round;stroke-miterlimit:10;stroke-dasharray:none;stroke-opacity:1"
             d="m 0,0 c 0,-552.285 -447.717,-1000 -1000,-1000 -552.285,0 -1000,447.715 -1000,1000 0,552.283 447.715,1000 1000,1000 C -447.717,1000 0,552.283 0,0 Z" /></g><g
           transform="translate(2400,-600)"
           id="g126"><path
             id="path128"
             style="fill:none;stroke:#ffffff;stroke-width:2;stroke-linecap:round;stroke-linejoin:round;stroke-miterlimit:10;stroke-dasharray:none;stroke-opacity:1"
             d="m 0,0 c 0,-662.742 -537.26,-1200 -1200,-1200 -662.742,0 -1200,537.258 -1200,1200 0,662.74 537.258,1200 1200,1200 C -537.26,1200 0,662.74 0,0 Z" /></g><g
           transform="translate(2600,-600)"
           id="g130"><path
             id="path132"
             style="fill:none;stroke:#ffffff;stroke-width:2;stroke-linecap:round;stroke-linejoin:round;stroke-miterlimit:10;stroke-dasharray:none;stroke-opacity:1"
             d="m 0,0 c 0,-773.199 -626.803,-1400 -1400,-1400 -773.199,0 -1400,626.801 -1400,1400 0,773.197 626.801,1400 1400,1400 C -626.803,1400 0,773.197 0,0 Z" /></g><g
           transform="translate(2800,-600)"
           id="g134"><path
             id="path136"
             style="fill:none;stroke:#ffffff;stroke-width:2;stroke-linecap:round;stroke-linejoin:round;stroke-miterlimit:10;stroke-dasharray:none;stroke-opacity:1"
             d="m 0,0 c 0,-883.658 -716.346,-1600.002 -1600,-1600.002 -883.656,0 -1600,716.344 -1600,1600.002 0,883.654 716.344,1600 1600,1600 C -716.346,1600 0,883.654 0,0 Z" /></g><g
           transform="translate(3000,-600)"
           id="g138"><path
             id="path140"
             style="fill:none;stroke:#ffffff;stroke-width:2;stroke-linecap:round;stroke-linejoin:round;stroke-miterlimit:10;stroke-dasharray:none;stroke-opacity:1"
             d="m 0,0 c 0,-994.115 -805.889,-1800.002 -1800,-1800.002 -994.113,0 -1800,805.887 -1800,1800.002 0,994.111 805.887,1800.001 1800,1800.001 C -805.889,1800.001 0,994.111 0,0 Z" /></g><g
           transform="translate(3200,-600)"
           id="g142"><path
             id="path144"
             style="fill:none;stroke:#ffffff;stroke-width:2;stroke-linecap:round;stroke-linejoin:round;stroke-miterlimit:10;stroke-dasharray:none;stroke-opacity:1"
             d="m 0,0 c 0,-1104.572 -895.432,-2000.002 -2000,-2000.002 -1104.57,0 -2000,895.43 -2000,2000.002 0,1104.568 895.43,2000.002 2000,2000.002 C -895.432,2000.002 0,1104.568 0,0 Z" /></g><g
           transform="translate(3400,-600)"
           id="g146"><path
             id="path148"
             style="fill:none;stroke:#ffffff;stroke-width:2;stroke-linecap:round;stroke-linejoin:round;stroke-miterlimit:10;stroke-dasharray:none;stroke-opacity:1"
             d="m 0,0 c 0,-1215.029 -984.975,-2200.002 -2200,-2200.002 -1215.027,0 -2200,984.973 -2200,2200.002 0,1215.025 984.973,2200.002 2200,2200.002 C -984.975,2200.002 0,1215.025 0,0 Z" /></g><g
           transform="translate(3600,-600)"
           id="g150"><path
             id="path152"
             style="fill:none;stroke:#ffffff;stroke-width:2;stroke-linecap:round;stroke-linejoin:round;stroke-miterlimit:10;stroke-dasharray:none;stroke-opacity:1"
             d="m 0,0 c 0,-1325.486 -1074.518,-2400.002 -2400,-2400.002 -1325.484,0 -2400,1074.516 -2400,2400.002 0,1325.482 1074.516,2400.002 2400,2400.002 C -1074.518,2400.002 0,1325.482 0,0 Z" /></g><g
           transform="translate(3800,-600)"
           id="g154"><path
             id="path156"
             style="fill:none;stroke:#ffffff;stroke-width:2;stroke-linecap:round;stroke-linejoin:round;stroke-miterlimit:10;stroke-dasharray:none;stroke-opacity:1"
             d="m 0,0 c 0,-1435.943 -1164.061,-2600.002 -2600,-2600.002 -1435.941,0 -2600,1164.059 -2600,2600.002 0,1435.939 1164.059,2600.002 2600,2600.002 C -1164.061,2600.002 0,1435.939 0,0 Z" /></g><g
           transform="translate(4000,-600)"
           id="g158"><path
             id="path160"
             style="fill:none;stroke:#ffffff;stroke-width:2;stroke-linecap:round;stroke-linejoin:round;stroke-miterlimit:10;stroke-dasharray:none;stroke-opacity:1"
             d="m 0,0 c 0,-1546.4 -1253.604,-2800.002 -2800,-2800.002 -1546.398,0 -2800,1253.602 -2800,2800.002 0,1546.396 1253.602,2800.002 2800,2800.002 C -1253.604,2800.002 0,1546.396 0,0 Z" /></g><g
           transform="translate(4200,-600)"
           id="g162"><path
             id="path164"
             style="fill:none;stroke:#ffffff;stroke-width:2;stroke-linecap:round;stroke-linejoin:round;stroke-miterlimit:10;stroke-dasharray:none;stroke-opacity:1"
             d="m 0,0 c 0,-1656.857 -1343.146,-3000.002 -3000,-3000.002 -1656.855,0 -3000,1343.145 -3000,3000.002 0,1656.854 1343.145,3000.002 3000,3000.002 C -1343.146,3000.002 0,1656.854 0,0 Z" /></g></g></g><g
       transform="translate(1419.2402,793.4336)"
       id="g166"><path
         id="path168"
         style="fill:none;stroke:#ffffff;stroke-width:6;stroke-linecap:round;stroke-linejoin:round;stroke-miterlimit:10;stroke-dasharray:none;stroke-opacity:1"
         d="m 0,0 h -46.096 l -1.783,-5.092 h 49.66 z" /></g><g
       transform="translate(1026.5254,793.4336)"
       id="g170"><path
         id="path172"
         style="fill:none;stroke:#ffffff;stroke-width:6;stroke-linecap:round;stroke-linejoin:round;stroke-miterlimit:10;stroke-dasharray:none;stroke-opacity:1"
         d="m 0,0 h -46.097 l -1.781,-5.092 H 1.781 Z" /></g><path
       id="path174"
       style="fill:none;stroke:#ffffff;stroke-width:6;stroke-linecap:round;stroke-linejoin:round;stroke-miterlimit:10;stroke-dasharray:none;stroke-opacity:1"
       d="m 1421.021,427.338 h -49.66 v 27.1 h 49.66 z" /><path
       id="path176"
       style="fill:none;stroke:#ffffff;stroke-width:6;stroke-linecap:round;stroke-linejoin:round;stroke-miterlimit:10;stroke-dasharray:none;stroke-opacity:1"
       d="m 1407.143,427.338 h -21.9 v 27.1 h 21.9 z" /><g
       transform="translate(1408.9238,420.7344)"
       id="g178"><path
         id="path180"
         style="fill:none;stroke:#ffffff;stroke-width:6;stroke-linecap:round;stroke-linejoin:round;stroke-miterlimit:10;stroke-dasharray:none;stroke-opacity:1"
         d="m 0,0 h -25.465 l -0.89,6.604 H 0.892 Z" /></g><path
       id="path182"
       style="fill:none;stroke:#ffffff;stroke-width:6;stroke-linecap:round;stroke-linejoin:round;stroke-miterlimit:10;stroke-dasharray:none;stroke-opacity:1"
       d="m 1028.307,427.338 h -49.659 v 27.1 h 49.659 z" /><path
       id="path184"
       style="fill:none;stroke:#ffffff;stroke-width:6;stroke-linecap:round;stroke-linejoin:round;stroke-miterlimit:10;stroke-dasharray:none;stroke-opacity:1"
       d="m 1014.428,427.338 h -21.9 v 27.1 h 21.9 z" /><g
       transform="translate(1016.209,420.7344)"
       id="g186"><path
         id="path188"
         style="fill:none;stroke:#ffffff;stroke-width:6;stroke-linecap:round;stroke-linejoin:round;stroke-miterlimit:10;stroke-dasharray:none;stroke-opacity:1"
         d="m 0,0 h -25.464 l -0.891,6.604 H 0.892 Z" /></g><g
       id="g190"><g
         clip-path="url(#clipPath196)"
         id="g192"><g
           transform="translate(1272.5625,839.0645)"
           id="g198"><path
             id="path200"
             style="fill:none;stroke:#ffffff;stroke-width:6;stroke-linecap:round;stroke-linejoin:round;stroke-miterlimit:10;stroke-dasharray:none;stroke-opacity:1"
             d="m 0,0 -1.838,4.748 c -24.84,64.148 -28.549,136.943 -28.549,174.629 0,109.656 13.221,229.836 13.221,229.836 1.072,9.744 -6.07,17.715 -15.873,17.715 h -79.379 c -9.801,0 -16.943,-7.971 -15.873,-17.715 0,0 13.223,-120.18 13.223,-229.836 0,-37.686 -3.709,-110.481 -28.549,-174.629 L -145.455,0 c -2.168,-4.994 3.862,-7.234 13.4,-4.979 0,0 32.602,7.711 59.326,7.711 26.727,0 59.329,-7.709 59.329,-7.709 C -3.862,-7.232 2.168,-4.992 0,0 Z" /></g><path
           id="path202"
           style="fill:none;stroke:#ffffff;stroke-width:6;stroke-linecap:round;stroke-linejoin:round;stroke-miterlimit:10;stroke-dasharray:none;stroke-opacity:1"
           d="m 949.835,1627.936 h 499.999 v 23.168 H 949.835 Z m 0,46.335 h 499.999 v 26.963 H 949.835 Z m 0,-114.95 v -366.374 h 10.082 c 10.418,0 13.283,5.151 14.535,15.64 1.252,10.49 0.157,65.601 32.409,65.601 h 16.118 c 12.147,0 19.119,3.582 19.119,16.837 v 183.845 c 0,18.78 12.591,28.79 31.611,28.79 h 252.25 c 19.02,0 31.611,-10.01 31.611,-28.79 v -183.845 c 0,-13.255 6.973,-16.837 19.119,-16.837 h 16.118 c 32.253,0 31.157,-55.111 32.41,-65.601 1.252,-10.489 4.117,-15.64 14.535,-15.64 h 10.082 v 366.374 z m 0,23.168 h 499.999 v 22.277 H 949.835 Z" /><g
           transform="translate(1357.5703,1474.8701)"
           id="g204"><path
             id="path206"
             style="fill:none;stroke:#ffffff;stroke-width:6;stroke-linecap:round;stroke-linejoin:round;stroke-miterlimit:10;stroke-dasharray:none;stroke-opacity:1"
             d="m 0,0 c 0,18.78 -12.592,28.79 -31.611,28.79 h -252.25 c -19.02,0 -31.612,-10.01 -31.612,-28.79 V -183.402 H 0 Z" /></g><g
           transform="translate(1325.959,1521.4824)"
           id="g208"><path
             id="path210"
             style="fill:none;stroke:#ffffff;stroke-width:6;stroke-linecap:round;stroke-linejoin:round;stroke-miterlimit:10;stroke-dasharray:none;stroke-opacity:1"
             d="m 0,0 h -252.25 c -29.566,0 -49.433,-18.732 -49.433,-46.612 v -200.667 c 11.343,0.258 17.822,4.047 17.822,16.822 v 183.845 c 0,18.78 12.591,28.79 31.611,28.79 H 0 c 19.02,0 31.611,-10.01 31.611,-28.79 v -183.845 c 0,-12.775 6.479,-16.564 17.823,-16.822 V -46.612 C 49.434,-18.732 29.568,0 0,0 Z" /></g><g
           transform="translate(1298.1104,1395.875)"
           id="g212"><path
             id="path214"
             style="fill:none;stroke:#ffffff;stroke-width:6;stroke-linecap:round;stroke-linejoin:round;stroke-miterlimit:10;stroke-dasharray:none;stroke-opacity:1"
             d="m 0,0 c 0,-54.16 -43.905,-98.066 -98.065,-98.066 -54.161,0 -98.067,43.906 -98.067,98.066 0,54.16 43.906,98.066 98.067,98.066 C -43.905,98.066 0,54.16 0,0 Z" /></g><g
           transform="translate(1285,1395.875)"
           id="g216"><path
             id="path218"
             style="fill:none;stroke:#ffffff;stroke-width:6;stroke-linecap:round;stroke-linejoin:round;stroke-miterlimit:10;stroke-dasharray:none;stroke-opacity:1"
             d="m 0,0 c 0,-46.92 -38.036,-84.955 -84.955,-84.955 -46.92,0 -84.955,38.035 -84.955,84.955 0,46.919 38.035,84.955 84.955,84.955 C -38.036,84.955 0,46.919 0,0 Z" /></g><g
           transform="translate(1251.7207,1395.875)"
           id="g220"><path
             id="path222"
             style="fill:none;stroke:#ffffff;stroke-width:6;stroke-linecap:round;stroke-linejoin:round;stroke-miterlimit:10;stroke-dasharray:none;stroke-opacity:1"
             d="m 0,0 c 0,-28.54 -23.137,-51.677 -51.676,-51.677 -28.54,0 -51.676,23.137 -51.676,51.677 0,28.54 23.136,51.676 51.676,51.676 C -23.137,51.676 0,28.54 0,0 Z" /></g><path
           id="path224"
           style="fill:none;stroke:#ffffff;stroke-width:6;stroke-linecap:round;stroke-linejoin:round;stroke-miterlimit:10;stroke-dasharray:none;stroke-opacity:1"
           d="m 961.173,1559.321 h 477.323 v 23.168 H 961.173 Z" /><path
           id="path226"
           style="fill:none;stroke:#ffffff;stroke-width:6;stroke-linecap:round;stroke-linejoin:round;stroke-miterlimit:10;stroke-dasharray:none;stroke-opacity:1"
           d="m 961.173,1604.767 h 477.323 v 23.169 H 961.173 Z" /><path
           id="path228"
           style="fill:none;stroke:#ffffff;stroke-width:6;stroke-linecap:round;stroke-linejoin:round;stroke-miterlimit:10;stroke-dasharray:none;stroke-opacity:1"
           d="m 961.173,1651.104 h 477.323 v 23.168 H 961.173 Z" /><g
           transform="translate(1199.834,803.0137)"
           id="g230"><path
             id="path232"
             style="fill:none;stroke:#ffffff;stroke-width:6;stroke-linecap:round;stroke-linejoin:round;stroke-miterlimit:10;stroke-dasharray:none;stroke-opacity:1"
             d="m 0,0 c -118.625,0 -214.791,-96.166 -214.791,-214.791 0,-118.627 96.166,-214.793 214.791,-214.793 118.627,0 214.792,96.166 214.792,214.793 C 214.792,-96.166 118.627,0 0,0 Z" /></g><g
           transform="translate(1199.834,422.7559)"
           id="g234"><path
             id="path236"
             style="fill:none;stroke:#ffffff;stroke-width:6;stroke-linecap:round;stroke-linejoin:round;stroke-miterlimit:10;stroke-dasharray:none;stroke-opacity:1"
             d="m 0,0 c -91.383,0 -165.465,74.082 -165.465,165.467 0,91.383 74.082,165.465 165.465,165.465 91.385,0 165.466,-74.082 165.466,-165.465 C 165.466,74.082 91.385,0 0,0 Z" /></g><g
           transform="translate(1199.834,796.1641)"
           id="g238"><path
             id="path240"
             style="fill:none;stroke:#ffffff;stroke-width:6;stroke-linecap:round;stroke-linejoin:round;stroke-miterlimit:10;stroke-dasharray:none;stroke-opacity:1"
             d="m 0,0 c -114.844,0 -207.942,-93.098 -207.942,-207.941 0,-114.844 93.098,-207.944 207.942,-207.944 114.844,0 207.943,93.1 207.943,207.944 C 207.943,-93.098 114.844,0 0,0 Z" /></g><g
           transform="translate(1199.834,429.748)"
           id="g242"><path
             id="path244"
             style="fill:none;stroke:#ffffff;stroke-width:6;stroke-linecap:round;stroke-linejoin:round;stroke-miterlimit:10;stroke-dasharray:none;stroke-opacity:1"
             d="m 0,0 c -87.522,0 -158.474,70.951 -158.474,158.475 0,87.521 70.952,158.472 158.474,158.472 87.523,0 158.475,-70.951 158.475,-158.472 C 158.475,70.951 87.523,0 0,0 Z" /></g><g
           transform="translate(1420.6738,761.2383)"
           id="g246"><path
             id="path248"
             style="fill:none;stroke:#ffffff;stroke-width:6;stroke-linecap:round;stroke-linejoin:round;stroke-miterlimit:10;stroke-dasharray:none;stroke-opacity:1"
             d="m 0,0 c -120.757,0 -142.855,168.785 -142.855,257.203 0,136.568 14.198,241.064 19.092,273.026 h -194.154 c 4.895,-31.962 19.093,-136.458 19.093,-273.026 C -298.824,168.785 -320.922,0 -441.679,0 c -9.802,0 -17.822,-8.02 -17.822,-17.82 v -134.844 h 24.836 c 10.255,109.078 102.065,194.439 213.825,194.439 111.761,0 203.571,-85.361 213.826,-194.439 H 17.822 V -17.82 C 17.822,-8.02 9.803,0 0,0 Z" /></g><g
           transform="translate(1413.9111,605.75)"
           id="g250"><path
             id="path252"
             style="fill:none;stroke:#ffffff;stroke-width:6;stroke-linecap:round;stroke-linejoin:round;stroke-miterlimit:10;stroke-dasharray:none;stroke-opacity:1"
             d="m 0,0 c 0.467,-5.781 0.715,-11.625 0.715,-17.527 0,-50.588 -17.498,-97.082 -46.758,-133.786 H 6.763 c 9.802,0 17.822,8.02 17.822,17.823 l 0,133.49 z" /></g><g
           transform="translate(985.043,588.2227)"
           id="g254"><path
             id="path256"
             style="fill:none;stroke:#ffffff;stroke-width:6;stroke-linecap:round;stroke-linejoin:round;stroke-miterlimit:10;stroke-dasharray:none;stroke-opacity:1"
             d="M 0,0 C 0,5.902 0.248,11.746 0.716,17.527 H -23.87 v -133.49 c 0,-9.803 8.019,-17.822 17.822,-17.822 H 46.759 C 17.498,-97.082 0,-50.588 0,0 Z" /></g><g
           transform="translate(1413.6602,608.5684)"
           id="g258"><path
             id="path260"
             style="fill:none;stroke:#ffffff;stroke-width:6;stroke-linecap:round;stroke-linejoin:round;stroke-miterlimit:10;stroke-dasharray:none;stroke-opacity:1"
             d="M 0,0 C 0.089,-0.941 0.175,-1.881 0.251,-2.824 H 15.928 V 0 Z" /></g><g
           transform="translate(1035.2959,605.7441)"
           id="g262"><path
             id="path264"
             style="fill:none;stroke:#ffffff;stroke-width:6;stroke-linecap:round;stroke-linejoin:round;stroke-miterlimit:10;stroke-dasharray:none;stroke-opacity:1"
             d="M 0,0 C 0.099,0.943 0.207,1.885 0.321,2.824 H 0.319 C 0.204,1.885 0.096,0.943 -0.004,0 Z" /></g><g
           transform="translate(986.0088,608.5684)"
           id="g266"><path
             id="path268"
             style="fill:none;stroke:#ffffff;stroke-width:6;stroke-linecap:round;stroke-linejoin:round;stroke-miterlimit:10;stroke-dasharray:none;stroke-opacity:1"
             d="M 0,0 H -15.923 V -2.824 H -0.251 C -0.175,-1.881 -0.089,-0.941 0,0 Z" /></g><g
           transform="translate(1028.3066,772.4727)"
           id="g270"><path
             id="path272"
             style="fill:none;stroke:#ffffff;stroke-width:6;stroke-linecap:round;stroke-linejoin:round;stroke-miterlimit:10;stroke-dasharray:none;stroke-opacity:1"
             d="m 0,0 v 15.869 h -49.659 v -27.098 h 0.794 C -30.341,-11.164 -14.145,-7.121 0,0 Z" /></g><g
           transform="translate(1420.2275,761.2441)"
           id="g274"><path
             id="path276"
             style="fill:none;stroke:#ffffff;stroke-width:6;stroke-linecap:round;stroke-linejoin:round;stroke-miterlimit:10;stroke-dasharray:none;stroke-opacity:1"
             d="m 0,0 h 0.794 v 27.098 h -49.66 V 11.229 C -34.721,4.107 -18.525,0.064 0,0 Z" /></g><g
           transform="translate(1499.9668,578.0391)"
           id="g278"><path
             id="path280"
             style="fill:none;stroke:#ffffff;stroke-width:6;stroke-linecap:round;stroke-linejoin:round;stroke-miterlimit:10;stroke-dasharray:none;stroke-opacity:1"
             d="M 0,0 -32.594,32.594 -37.455,30.256 -2.34,-4.859 Z" /></g><g
           transform="translate(1222.2754,855.7305)"
           id="g282"><path
             id="path284"
             style="fill:none;stroke:#ffffff;stroke-width:6;stroke-linecap:round;stroke-linejoin:round;stroke-miterlimit:10;stroke-dasharray:none;stroke-opacity:1"
             d="M 0,0 -32.595,32.596 -37.454,30.254 -2.34,-4.859 Z" /></g><g
           transform="translate(1242.3574,317.9102)"
           id="g286"><path
             id="path288"
             style="fill:none;stroke:#ffffff;stroke-width:6;stroke-linecap:round;stroke-linejoin:round;stroke-miterlimit:10;stroke-dasharray:none;stroke-opacity:1"
             d="M 0,0 -35.115,35.115 -15.951,54.277 19.164,19.162 Z" /></g><g
           transform="translate(1232.5449,327.7246)"
           id="g290"><path
             id="path292"
             style="fill:none;stroke:#ffffff;stroke-width:6;stroke-linecap:round;stroke-linejoin:round;stroke-miterlimit:10;stroke-dasharray:none;stroke-opacity:1"
             d="M 0,0 -15.486,15.486 3.676,34.648 19.162,19.162 Z" /></g><g
           transform="translate(1229.1348,321.7949)"
           id="g294"><path
             id="path296"
             style="fill:none;stroke:#ffffff;stroke-width:6;stroke-linecap:round;stroke-linejoin:round;stroke-miterlimit:10;stroke-dasharray:none;stroke-opacity:1"
             d="m 0,0 -18.008,18.008 4.041,5.299 L 5.299,4.039 Z" /></g><g
           transform="translate(964.667,595.6016)"
           id="g298"><path
             id="path300"
             style="fill:none;stroke:#ffffff;stroke-width:6;stroke-linecap:round;stroke-linejoin:round;stroke-miterlimit:10;stroke-dasharray:none;stroke-opacity:1"
             d="M 0,0 -35.114,35.115 -15.952,54.277 19.163,19.162 Z" /></g><g
           transform="translate(954.853,605.416)"
           id="g302"><path
             id="path304"
             style="fill:none;stroke:#ffffff;stroke-width:6;stroke-linecap:round;stroke-linejoin:round;stroke-miterlimit:10;stroke-dasharray:none;stroke-opacity:1"
             d="M 0,0 -15.486,15.486 3.677,34.648 19.163,19.162 Z" /></g><g
           transform="translate(951.4429,599.4863)"
           id="g306"><path
             id="path308"
             style="fill:none;stroke:#ffffff;stroke-width:6;stroke-linecap:round;stroke-linejoin:round;stroke-miterlimit:10;stroke-dasharray:none;stroke-opacity:1"
             d="m 0,0 -18.005,18.006 4.039,5.301 L 5.3,4.039 Z" /></g><g
           transform="translate(1428.5156,714.0215)"
           id="g310"><path
             id="path312"
             style="fill:none;stroke:#ffffff;stroke-width:6;stroke-linecap:round;stroke-linejoin:round;stroke-miterlimit:10;stroke-dasharray:none;stroke-opacity:1"
             d="m 0,0 2.059,4.658 c 27.795,62.924 76.646,117.02 103.295,143.668 77.539,77.539 171.867,153.17 171.867,153.17 7.648,6.131 8.232,16.818 1.3,23.75 l -56.128,56.129 c -6.93,6.93 -17.618,6.344 -23.75,-1.303 0,0 -75.629,-94.328 -153.168,-171.867 -26.649,-26.648 -80.745,-75.5 -143.67,-103.295 l -4.657,-2.058 c -5.064,-1.998 -2.384,-7.846 5.956,-12.995 0,0 28.505,-17.601 47.402,-36.498 18.898,-18.898 36.5,-47.402 36.5,-47.402 C -7.844,-2.383 -1.996,-5.063 0,0 Z" /></g><g
           transform="translate(1774.5117,1516.4219)"
           id="g314"><path
             id="path316"
             style="fill:none;stroke:#ffffff;stroke-width:6;stroke-linecap:round;stroke-linejoin:round;stroke-miterlimit:10;stroke-dasharray:none;stroke-opacity:1"
             d="m 0,0 -16.383,-16.382 353.553,-353.554 16.383,16.383 z M 35.449,35.449 16.383,16.383 369.936,-337.17 l 19.066,19.066 z m -100.347,-100.347 -259.067,-259.067 7.129,-7.129 c 7.367,-7.367 13.035,-5.75 21.336,0.781 8.303,6.532 46.498,46.276 69.305,23.47 0,0 6.168,-6.169 11.396,-11.397 8.59,-8.588 16.051,-10.987 25.426,-1.612 l 129.996,129.998 c 13.281,13.28 29.262,11.454 42.711,-1.996 l 178.367,-178.367 c 13.449,-13.449 15.276,-29.431 1.996,-42.711 L 33.699,-542.926 c -9.373,-9.373 -6.976,-16.836 1.614,-25.426 l 11.396,-11.396 c 22.807,-22.805 -16.938,-61 -23.469,-69.303 -6.531,-8.303 -8.148,-13.97 -0.781,-21.338 l 7.129,-7.129 259.066,259.067 z m 32.132,32.133 -15.752,-15.753 353.553,-353.552 15.752,15.752 z" /></g><g
           transform="translate(1938.209,1103.4941)"
           id="g318"><path
             id="path320"
             style="fill:none;stroke:#ffffff;stroke-width:6;stroke-linecap:round;stroke-linejoin:round;stroke-miterlimit:10;stroke-dasharray:none;stroke-opacity:1"
             d="m 0,0 c 13.279,13.279 11.453,29.262 -1.996,42.711 l -178.367,178.367 c -13.45,13.449 -29.43,15.276 -42.711,1.995 -8.203,-8.204 -104.709,-104.71 -129.684,-129.684 l 223.072,-223.075 z" /></g><g
           transform="translate(1948.8164,1158.8066)"
           id="g322"><path
             id="path324"
             style="fill:none;stroke:#ffffff;stroke-width:6;stroke-linecap:round;stroke-linejoin:round;stroke-miterlimit:10;stroke-dasharray:none;stroke-opacity:1"
             d="m 0,0 -178.369,178.368 c -20.906,20.906 -48.199,21.708 -67.914,1.994 L -388.176,38.469 c 8.203,-7.838 15.463,-9.74 24.498,-0.705 24.485,24.484 121.758,121.757 129.996,129.997 13.282,13.28 29.262,11.454 42.711,-1.995 L -12.604,-12.602 c 13.45,-13.449 15.276,-29.431 1.997,-42.711 -8.241,-8.238 -105.514,-105.511 -129.998,-129.998 -9.034,-9.033 -7.133,-16.293 0.707,-24.498 L 1.994,-67.914 C 21.709,-48.201 20.908,-20.908 0,0 Z" /></g><g
           transform="translate(1840.3066,1089.6816)"
           id="g326"><path
             id="path328"
             style="fill:none;stroke:#ffffff;stroke-width:6;stroke-linecap:round;stroke-linejoin:round;stroke-miterlimit:10;stroke-dasharray:none;stroke-opacity:1"
             d="m 0,0 c -38.297,-38.297 -100.389,-38.299 -138.688,-0.002 -38.296,38.297 -38.296,100.391 0,138.688 38.297,38.296 100.391,38.296 138.688,0 C 38.297,100.389 38.297,38.297 0,0 Z" /></g><g
           transform="translate(1831.0352,1098.9512)"
           id="g330"><path
             id="path332"
             style="fill:none;stroke:#ffffff;stroke-width:6;stroke-linecap:round;stroke-linejoin:round;stroke-miterlimit:10;stroke-dasharray:none;stroke-opacity:1"
             d="m 0,0 c -33.178,-33.178 -86.967,-33.176 -120.145,0 -33.177,33.178 -33.177,86.967 0,120.145 33.178,33.177 86.967,33.177 120.145,0 C 33.178,86.969 33.178,33.178 0,0 Z" /></g><g
           transform="translate(1807.5039,1122.4824)"
           id="g334"><path
             id="path336"
             style="fill:none;stroke:#ffffff;stroke-width:6;stroke-linecap:round;stroke-linejoin:round;stroke-miterlimit:10;stroke-dasharray:none;stroke-opacity:1"
             d="m 0,0 c -20.182,-20.18 -52.902,-20.18 -73.082,0 -20.18,20.182 -20.18,52.9 0.002,73.082 20.18,20.18 52.898,20.181 73.08,0 C 20.18,52.902 20.18,20.182 0,0 Z" /></g><g
           transform="translate(1734.0117,1459.8877)"
           id="g338"><path
             id="path340"
             style="fill:none;stroke:#ffffff;stroke-width:6;stroke-linecap:round;stroke-linejoin:round;stroke-miterlimit:10;stroke-dasharray:none;stroke-opacity:1"
             d="m 0,0 -16.383,-16.382 337.52,-337.517 16.381,16.38 z" /></g><g
           transform="translate(1766.1465,1492.0234)"
           id="g342"><path
             id="path344"
             style="fill:none;stroke:#ffffff;stroke-width:6;stroke-linecap:round;stroke-linejoin:round;stroke-miterlimit:10;stroke-dasharray:none;stroke-opacity:1"
             d="m 0,0 -16.383,-16.383 337.518,-337.519 16.383,16.382 z" /></g><g
           transform="translate(1798.9121,1524.7871)"
           id="g346"><path
             id="path348"
             style="fill:none;stroke:#ffffff;stroke-width:6;stroke-linecap:round;stroke-linejoin:round;stroke-miterlimit:10;stroke-dasharray:none;stroke-opacity:1"
             d="m 0,0 -16.383,-16.382 337.518,-337.518 16.383,16.382 z" /></g><g
           transform="translate(1351.5977,739.957)"
           id="g350"><path
             id="path352"
             style="fill:none;stroke:#ffffff;stroke-width:6;stroke-linecap:round;stroke-linejoin:round;stroke-miterlimit:10;stroke-dasharray:none;stroke-opacity:1"
             d="m 0,0 c -83.881,83.881 -219.879,83.881 -303.76,0 -83.882,-83.883 -83.882,-219.881 -0.001,-303.762 83.882,-83.883 219.88,-83.881 303.761,0 C 83.881,-219.881 83.883,-83.883 0,0 Z" /></g><g
           transform="translate(1082.7153,471.0742)"
           id="g354"><path
             id="path356"
             style="fill:none;stroke:#ffffff;stroke-width:6;stroke-linecap:round;stroke-linejoin:round;stroke-miterlimit:10;stroke-dasharray:none;stroke-opacity:1"
             d="m 0,0 c -64.618,64.617 -64.618,169.385 0.001,234.004 64.618,64.617 169.385,64.617 234.002,0 64.62,-64.619 64.62,-169.387 0,-234.004 C 169.386,-64.619 64.619,-64.619 0,0 Z" /></g><g
           transform="translate(1346.7539,735.1133)"
           id="g358"><path
             id="path360"
             style="fill:none;stroke:#ffffff;stroke-width:6;stroke-linecap:round;stroke-linejoin:round;stroke-miterlimit:10;stroke-dasharray:none;stroke-opacity:1"
             d="m 0,0 c -81.207,81.207 -212.867,81.207 -294.074,0 -81.206,-81.205 -81.207,-212.867 0,-294.074 81.206,-81.207 212.869,-81.207 294.076,0 C 81.209,-212.867 81.207,-81.207 0,0 Z" /></g><g
           transform="translate(1087.6597,476.0176)"
           id="g362"><path
             id="path364"
             style="fill:none;stroke:#ffffff;stroke-width:6;stroke-linecap:round;stroke-linejoin:round;stroke-miterlimit:10;stroke-dasharray:none;stroke-opacity:1"
             d="m 0,0 c -61.888,61.889 -61.888,162.229 0,224.117 61.888,61.887 162.227,61.887 224.116,-0.002 C 286.002,162.229 286.004,61.887 224.116,0 162.229,-61.889 61.888,-61.887 0,0 Z" /></g><g
           transform="translate(1478.2148,554.2598)"
           id="g366"><path
             id="path368"
             style="fill:none;stroke:#ffffff;stroke-width:6;stroke-linecap:round;stroke-linejoin:round;stroke-miterlimit:10;stroke-dasharray:none;stroke-opacity:1"
             d="m 0,0 c -85.387,85.389 18.336,220.363 80.857,282.885 96.569,96.568 180.497,160.416 206.559,179.556 L 150.129,599.73 C 130.988,573.668 67.139,489.74 -29.43,393.172 -91.951,330.65 -226.926,226.926 -312.313,312.314 c -6.932,6.932 -18.273,6.932 -25.203,0 l -95.349,-95.347 17.561,-17.563 c 84.382,69.879 209.661,65.319 288.687,-13.707 79.027,-79.027 83.588,-204.306 13.709,-288.687 l 17.56,-17.563 95.35,95.35 C 6.932,-18.273 6.932,-6.932 0,0 Z" /></g><g
           transform="translate(1363.4863,449.0957)"
           id="g370"><path
             id="path372"
             style="fill:none;stroke:#ffffff;stroke-width:6;stroke-linecap:round;stroke-linejoin:round;stroke-miterlimit:10;stroke-dasharray:none;stroke-opacity:1"
             d="m 0,0 c -3.758,-4.42 -7.715,-8.727 -11.889,-12.9 -35.769,-35.772 -81.019,-56.274 -127.662,-61.538 l 37.34,-37.339 c 6.932,-6.932 18.272,-6.932 25.203,0 l 94.393,94.392 z" /></g><g
           transform="translate(1047.8374,739.957)"
           id="g374"><path
             id="path376"
             style="fill:none;stroke:#ffffff;stroke-width:6;stroke-linecap:round;stroke-linejoin:round;stroke-miterlimit:10;stroke-dasharray:none;stroke-opacity:1"
             d="m 0,0 c 4.174,4.174 8.481,8.131 12.9,11.887 l -17.384,17.384 -94.392,-94.39 c -6.932,-6.932 -6.932,-18.274 0,-25.205 l 37.339,-37.34 C -56.274,-81.021 -35.771,-35.771 0,0 Z" /></g><g
           transform="translate(1365.3027,451.2656)"
           id="g378"><path
             id="path380"
             style="fill:none;stroke:#ffffff;stroke-width:6;stroke-linecap:round;stroke-linejoin:round;stroke-miterlimit:10;stroke-dasharray:none;stroke-opacity:1"
             d="m 0,0 c -0.604,-0.729 -1.207,-1.453 -1.82,-2.176 l 11.086,-11.084 1.996,1.996 z" /></g><g
           transform="translate(1095.7612,716.8125)"
           id="g382"><path
             id="path384"
             style="fill:none;stroke:#ffffff;stroke-width:6;stroke-linecap:round;stroke-linejoin:round;stroke-miterlimit:10;stroke-dasharray:none;stroke-opacity:1"
             d="M 0,0 C 0.737,0.598 1.479,1.186 2.225,1.77 L 2.223,1.771 C 1.478,1.188 0.735,0.6 -0.002,0.002 Z" /></g><g
           transform="translate(1062.9072,753.6602)"
           id="g386"><path
             id="path388"
             style="fill:none;stroke:#ffffff;stroke-width:6;stroke-linecap:round;stroke-linejoin:round;stroke-miterlimit:10;stroke-dasharray:none;stroke-opacity:1"
             d="M 0,0 -11.259,11.26 -13.256,9.262 -2.175,-1.818 C -1.454,-1.207 -0.729,-0.602 0,0 Z" /></g><g
           transform="translate(1208.7148,839.6484)"
           id="g390"><path
             id="path392"
             style="fill:none;stroke:#ffffff;stroke-width:6;stroke-linecap:round;stroke-linejoin:round;stroke-miterlimit:10;stroke-dasharray:none;stroke-opacity:1"
             d="m 0,0 11.221,11.223 -35.115,35.113 -19.161,-19.16 0.561,-0.563 C -29.349,13.561 -15.038,4.967 0,0 Z" /></g><g
           transform="translate(1477.9043,554.5801)"
           id="g394"><path
             id="path396"
             style="fill:none;stroke:#ffffff;stroke-width:6;stroke-linecap:round;stroke-linejoin:round;stroke-miterlimit:10;stroke-dasharray:none;stroke-opacity:1"
             d="M 0,0 0.561,-0.563 19.723,18.6 -15.393,53.715 -26.613,42.492 C -21.646,27.455 -13.055,13.145 0,0 Z" /></g><g
           transform="translate(1450.5469,1734.8535)"
           id="g398"><path
             id="path400"
             style="fill:none;stroke:#ffffff;stroke-width:6;stroke-linecap:round;stroke-linejoin:round;stroke-miterlimit:10;stroke-dasharray:none;stroke-opacity:1"
             d="m 0,0 v 16.441 h -231.234 l -19.122,23.121 -19.123,-23.121 H -500.712 V 0" /></g><g
           transform="translate(916.6519,1701.2344)"
           id="g402"><path
             id="path404"
             style="fill:none;stroke:#ffffff;stroke-width:6;stroke-linecap:round;stroke-linejoin:round;stroke-miterlimit:10;stroke-dasharray:none;stroke-opacity:1"
             d="m 0,0 h -16.441 v -234.234 l -23.121,-19.91 23.121,-18.335 V -508.287 H 0" /></g></g></g><text
       id="text408"
       style="font-variant:normal;font-weight:bold;font-stretch:normal;font-size:80px;font-family:'Myriad Roman';-inkscape-font-specification:Myriad-Bold;writing-mode:lr-tb;fill:#ffffff;fill-opacity:1;fill-rule:nonzero;stroke:none"
       transform="matrix(1,0,0,-1,326.5771,1420.6523)"><tspan
         id="tspan406"
         y="0"
         x="0 46.400002 102.08 172.96001 222.64 266.72 312.64001 328.88 375.92001 421.84 474.56">SAMPLE TEXT</tspan></text>
<text
       id="text418"
       style="font-variant:normal;font-weight:bold;font-stretch:normal;font-size:30px;font-family:'Myriad Roman';-inkscape-font-specification:Myriad-Bold;writing-mode:lr-tb;fill:#ffffff;fill-opacity:1;fill-rule:nonzero;stroke:none"
       transform="matrix(1,0,0,-1,410.9824,1344.1982)"><tspan
         id="tspan410"
         y="0"
         x="0 16.26 34.77 47.16 64.199997 91.199997 98.459999 107.88 126.66 140.88 159.57001 186.57001 205.08 219.3 226.56 245.64 264.14999 273.57001 292.07999 304.67999 311.94 326.16 335.57999 347.79001 355.04999 372.09 399.09 416.13 427.95001">Lorem insumos dolor sit amet,</tspan><tspan
         id="tspan412"
         y="39.990002"
         x="44.279999 58.68 77.190002 95.970001 110.19 127.23 142.44 154.5 171.53999 183.75 202.44 215.03999 222.3 239.34 253.56 262.98001 270.23999 289.38 298.79999 313.01999 327.75 337.17001 355.95001 372.98999 380.25 397.29001 406.70999 416.13 427.95001">consectetur así piscina elit,</tspan><tspan
         id="tspan414"
         y="79.980003"
         x="-68.970001 -54.75 -37.709999 -18.629999 -11.37 7.71 26.219999 33.48 50.52 59.939999 78.629997 92.849998 119.85 138.45 157.53 164.78999 176.85001 193.89 220.89 240.12 258.63 271.23001 278.48999 287.91 306.69 321.42001 330.84 349.92001 359.34 378.42001 397.10999 415.70999 427.92001">sed do eiusmod tempor incididunt </tspan><tspan
         id="tspan416"
         y="119.97"
         x="-29.040001 -16.83 1.86 9.1199999 18.540001 35.580002 54.810001 73.32 85.709999 102.75 110.01 127.05 139.25999 146.52 165.60001 184.11 193.53 212.03999 224.42999 241.47 248.73 275.73001 292.76999 311.51999 330.29999 347.34 354.60001 371.64001 381.06 390.48001 409.53 427.92001">tu labore et dolore magna aliqu.</tspan></text>
<text
       id="text422"
       style="font-variant:normal;font-weight:bold;font-stretch:normal;font-size:80px;font-family:'Myriad Roman';-inkscape-font-specification:Myriad-Bold;writing-mode:lr-tb;fill:#ffffff;fill-opacity:1;fill-rule:nonzero;stroke:none"
       transform="matrix(1,0,0,-1,943.7622,2019.9346)"><tspan
         id="tspan420"
         y="0"
         x="0 46.400002 102.08 172.96001 222.64 266.72 312.64001 328.88 375.92001 421.84 474.56">SAMPLE TEXT</tspan></text>
<text
       id="text432"
       style="font-variant:normal;font-weight:bold;font-stretch:normal;font-size:30px;font-family:'Myriad Roman';-inkscape-font-specification:Myriad-Bold;writing-mode:lr-tb;fill:#ffffff;fill-opacity:1;fill-rule:nonzero;stroke:none"
       transform="matrix(1,0,0,-1,943.7622,1943.4805)"><tspan
         id="tspan424"
         y="0"
         x="0 16.26 34.77 47.16 64.199997 91.199997 98.459999 107.88 126.66 140.88 159.57001 186.57001 205.08 219.3 226.56 245.64 264.14999 273.57001 292.07999 304.67999 311.94 326.16 335.57999 347.79001 355.04999 372.09 399.09 416.13 427.95001">Lorem insumos dolor sit amet,</tspan><tspan
         id="tspan426"
         y="39.990002"
         x="0 14.4 32.91 51.689999 65.910004 82.949997 98.160004 110.22 127.26 139.47 158.16 170.75999 178.02 195.06 209.28 218.7 225.96001 245.10001 254.52 268.73999 283.47 292.89001 311.67001 328.70999 335.97 353.01001 362.42999 371.85001 383.67001">consectetur así piscina elit,</tspan><tspan
         id="tspan428"
         y="79.980003"
         x="0 14.22 31.26 50.34 57.599998 76.68 95.190002 102.45 119.49 128.91 147.60001 161.82001 188.82001 207.42 226.5 233.75999 245.82001 262.85999 289.85999 309.09 327.60001 340.20001 347.45999 356.88 375.66 390.39001 399.81 418.89001 428.31 447.39001 466.07999 484.67999 496.89001">sed do eiusmod tempor incididunt </tspan><tspan
         id="tspan430"
         y="119.97"
         x="0 12.21 30.9 38.16 47.580002 64.620003 83.849998 102.36 114.75 131.78999 139.05 156.09 168.3 175.56 194.64 213.14999 222.57001 241.08 253.47 270.51001 277.76999 304.76999 321.81 340.56 359.34 376.38 383.64001 400.67999 410.10001 419.51999 438.57001 456.95999">tu labore et dolore magna aliqu.</tspan></text>
</g></svg>