<?xml version="1.0" standalone="no"?>
<!DOCTYPE svg PUBLIC "-//W3C//DTD SVG 1.1//EN"
  "http://www.w3.org/Graphics/SVG/1.1/DTD/svg11.dtd">
<svg version="1.1" xmlns="http://www.w3.org/2000/svg" xmlns:xlink="http://www.w3.org/1999/xlink">
<title></title>
<g xml:space='preserve' >
<clipPath id="clippath0" transform="matrix(0.071919,0.000000,0.000000,0.072009,0.000000,0.000000) "  >
<path d="
M 0 0
L 0 0
L 0 6178
L 11706 6178
L 11706 0
Z
" style="clip-rule:nonzero"/>
</clipPath>
<g style="clip-path:url(#clippath0)">
<g transform="matrix(0.071919,0.000000,0.000000,0.072009,0.000000,0.000000) " fill="none" stroke="#000000" stroke-width="1" stroke-linejoin="round" stroke-linecap="round" >
<path d="
M 9230 20
L 9230 20
L 9220 22
L 9211 26
L 9211 26
L 9185 38
L 9185 38
L 9157 53
L 9157 53
L 9131 69
L 9131 69
L 9102 90
L 9102 90
L 9089 101
L 9077 112
L 9077 112
L 9066 124
L 9055 137
L 9055 137
L 9035 165
L 9035 165
L 9020 187
L 9020 187
L 9005 209
L 9005 209
L 8992 228
L 8992 228
L 8985 238
L 8985 238
L 8980 245
L 8980 245
L 8976 253
L 8976 253
L 8973 260
L 8973 260
L 8972 266
L 8972 266
L 8971 273
L 8971 273
L 8967 284
L 8967 284
L 8961 298
L 8961 298
L 8955 311
L 8955 311
L 8946 330
L 8940 350
L 8940 350
L 8917 443
L 8917 443
L 8895 546
L 8895 546
L 8886 593
L 8878 640
L 8878 640
L 8874 667
L 8874 667
L 8868 701
L 8868 701
L 8862 735
L 8862 735
L 8856 766
L 8856 766
L 8849 801
L 8849 801
L 8840 853
L 8840 853
L 8830 910
L 8830 910
L 8820 965
L 8820 965
L 8810 1021
L 8810 1021
L 8799 1083
L 8799 1083
L 8788 1141
L 8788 1141
L 8780 1185
L 8780 1185
L 8773 1221
L 8773 1221
L 8767 1257
L 8767 1257
L 8761 1288
L 8761 1288
L 8759 1306
L 8759 1306
L 8757 1321
L 8757 1321
L 8754 1342
L 8754 1342
L 8751 1364
L 8751 1364
L 8747 1384
L 8747 1384
L 8744 1402
L 8744 1402
L 8741 1418
L 8741 1418
L 8738 1431
L 8738 1431
L 8738 1433
L 8738 1433
L 8738 1434
L 8737 1435
L 8737 1435
L 8708 1444
L 8708 1444
L 8675 1455
L 8675 1455
L 8636 1467
L 8636 1467
L 8593 1481
L 8593 1481
L 8547 1495
L 8547 1495
L 8504 1509
L 8504 1509
L 8474 1519
L 8474 1519
L 8446 1528
L 8446 1528
L 8410 1539
L 8410 1539
L 8373 1551
L 8373 1551
L 8340 1561
L 8340 1561
L 8307 1572
L 8307 1572
L 8266 1584
L 8266 1584
L 8226 1597
L 8226 1597
L 8193 1607
L 8193 1607
L 8161 1617
L 8161 1617
L 8124 1629
L 8124 1629
L 8090 1641
L 8090 1641
L 8063 1650
L 8063 1650
L 8040 1658
L 8040 1658
L 8019 1665
L 8019 1665
L 8002 1670
L 8002 1670
L 7994 1670
L 7994 1670
L 7986 1672
L 7986 1672
L 7968 1677
L 7968 1677
L 7947 1683
L 7947 1683
L 7925 1691
L 7925 1691
L 7896 1701
L 7896 1701
L 7854 1715
L 7854 1715
L 7808 1730
L 7808 1730
L 7764 1744
L 7764 1744
L 7717 1760
L 7670 1777
L 7670 1777
L 7630 1794
L 7590 1812
L 7590 1812
L 7556 1830
L 7523 1850
L 7523 1850
L 7496 1868
L 7470 1889
L 7470 1889
L 7450 1910
L 7450 1910
L 7427 1935
L 7427 1935
L 7407 1962
L 7407 1962
L 7391 1987
L 7391 1987
L 7373 2022
L 7373 2022
L 7368 2034
L 7365 2047
L 7365 2047
L 7362 2060
L 7361 2074
L 7361 2074
L 7360 2125
L 7360 2125
L 7361 2173
L 7361 2173
L 7363 2188
L 7365 2203
L 7365 2203
L 7368 2217
L 7373 2230
L 7373 2230
L 7388 2268
L 7388 2268
L 7397 2285
L 7406 2301
L 7406 2301
L 7415 2316
L 7426 2331
L 7426 2331
L 7439 2346
L 7452 2361
L 7452 2361
L 7491 2400
L 7491 2400
L 7536 2441
L 7536 2441
L 7553 2455
L 7571 2469
L 7571 2469
L 7590 2481
L 7610 2492
L 7610 2492
L 7670 2522
L 7670 2522
L 7710 2542
L 7710 2542
L 7748 2560
L 7748 2560
L 7779 2574
L 7779 2574
L 7790 2579
L 7790 2579
L 7800 2583
L 7800 2583
L 7818 2591
L 7818 2591
L 7839 2600
L 7839 2600
L 7860 2610
L 7860 2610
L 7881 2620
L 7881 2620
L 7904 2630
L 7904 2630
L 7924 2639
L 7924 2639
L 7938 2645
L 7938 2645
L 7969 2659
L 7969 2659
L 8047 2694
L 8047 2694
L 8126 2728
L 8126 2728
L 8176 2750
L 8176 2750
L 8190 2756
L 8190 2756
L 8210 2765
L 8210 2765
L 8230 2775
L 8230 2775
L 8249 2783
L 8249 2783
L 8295 2803
L 8295 2803
L 8307 2807
L 8319 2809
L 8319 2809
L 8330 2808
L 8340 2805
L 8340 2805
L 8354 2797
L 8367 2789
L 8367 2789
L 8385 2777
L 8385 2777
L 8408 2762
L 8408 2762
L 8432 2747
L 8432 2747
L 8453 2733
L 8453 2733
L 8512 2695
L 8512 2695
L 8581 2651
L 8581 2651
L 8645 2610
L 8645 2610
L 8685 2583
L 8685 2583
L 8702 2572
L 8702 2572
L 8720 2561
L 8720 2561
L 8736 2550
L 8736 2550
L 8748 2543
L 8748 2543
L 8759 2536
L 8759 2536
L 8774 2526
L 8774 2526
L 8790 2516
L 8790 2516
L 8805 2506
L 8805 2506
L 8819 2496
L 8819 2496
L 8836 2485
L 8836 2485
L 8853 2474
L 8853 2474
L 8866 2466
L 8866 2466
L 8877 2458
L 8877 2458
L 8886 2451
L 8886 2451
L 8892 2444
L 8892 2444
L 8894 2440
L 8894 2440
L 8894 2438
L 8893 2437
L 8893 2437
L 8888 2435
L 8888 2435
L 8882 2433
L 8882 2433
L 8874 2432
L 8874 2432
L 8866 2432
L 8866 2432
L 8858 2430
L 8858 2430
L 8850 2428
L 8850 2428
L 8846 2425
L 8846 2425
L 8840 2421
L 8840 2421
L 8821 2412
L 8821 2412
L 8799 2403
L 8799 2403
L 8773 2393
L 8773 2393
L 8747 2383
L 8747 2383
L 8721 2373
L 8721 2373
L 8699 2363
L 8699 2363
L 8687 2357
L 8687 2357
L 8677 2353
L 8677 2353
L 8667 2349
L 8667 2349
L 8658 2346
L 8658 2346
L 8651 2346
L 8651 2346
L 8645 2345
L 8645 2345
L 8639 2344
L 8639 2344
L 8634 2341
L 8634 2341
L 8630 2338
L 8630 2338
L 8625 2335
L 8625 2335
L 8615 2330
L 8615 2330
L 8603 2325
L 8603 2325
L 8591 2320
L 8591 2320
L 8576 2314
L 8576 2314
L 8556 2306
L 8556 2306
L 8534 2297
L 8534 2297
L 8513 2289
L 8513 2289
L 8490 2279
L 8490 2279
L 8458 2267
L 8458 2267
L 8424 2254
L 8424 2254
L 8392 2242
L 8392 2242
L 8361 2230
L 8361 2230
L 8329 2217
L 8329 2217
L 8301 2206
L 8301 2206
L 8282 2198
L 8282 2198
L 8267 2191
L 8267 2191
L 8254 2186
L 8254 2186
L 8242 2182
L 8242 2182
L 8236 2181
L 8236 2181
L 8232 2181
L 8232 2181
L 8226 2179
L 8226 2179
L 8219 2176
L 8219 2176
L 8212 2172
L 8212 2172
L 8203 2167
L 8203 2167
L 8183 2159
L 8183 2159
L 8159 2149
L 8159 2149
L 8134 2139
L 8071 2115
L 8121 2100
L 8121 2100
L 8206 2074
L 8206 2074
L 8327 2036
L 8327 2036
L 8445 1998
L 8445 1998
L 8509 1978
L 8509 1978
L 8541 1967
L 8541 1967
L 8594 1950
L 8594 1950
L 8653 1931
L 8653 1931
L 8712 1913
L 8712 1913
L 8841 1872
L 8841 1872
L 8927 1845
L 8927 1845
L 8995 1823
L 8995 1823
L 9063 1801
L 9141 1775
L 9155 1699
L 9155 1699
L 9176 1586
L 9176 1586
L 9193 1489
L 9193 1489
L 9207 1411
L 9207 1411
L 9211 1381
L 9211 1381
L 9213 1366
L 9213 1366
L 9219 1337
L 9219 1337
L 9225 1303
L 9225 1303
L 9232 1268
L 9232 1268
L 9239 1232
L 9239 1232
L 9245 1196
L 9245 1196
L 9250 1165
L 9250 1165
L 9253 1147
L 9253 1147
L 9258 1114
L 9263 1081
L 9263 1081
L 9294 914
L 9294 914
L 9328 731
L 9328 731
L 9330 723
L 9333 715
L 9333 715
L 9335 714
L 9337 714
L 9338 715
L 9338 715
L 9349 729
L 9349 729
L 9368 758
L 9368 758
L 9413 835
L 9413 835
L 9454 904
L 9454 904
L 9508 995
L 9508 995
L 9561 1083
L 9561 1083
L 9585 1121
L 9585 1121
L 9594 1135
L 9594 1135
L 9609 1160
L 9609 1160
L 9626 1188
L 9626 1188
L 9643 1216
L 9643 1216
L 9660 1245
L 9660 1245
L 9678 1274
L 9678 1274
L 9693 1300
L 9693 1300
L 9703 1316
L 9703 1316
L 9714 1333
L 9714 1333
L 9733 1364
L 9733 1364
L 9754 1400
L 9754 1400
L 9776 1437
L 9776 1437
L 9798 1473
L 9798 1473
L 9818 1507
L 9818 1507
L 9836 1535
L 9836 1535
L 9845 1548
L 9860 1567
L 9976 1537
L 9976 1537
L 10022 1525
L 10022 1525
L 10063 1515
L 10063 1515
L 10097 1505
L 10097 1505
L 10107 1502
L 10107 1502
L 10116 1499
L 10116 1499
L 10132 1494
L 10132 1494
L 10152 1489
L 10152 1489
L 10172 1484
L 10172 1484
L 10202 1477
L 10202 1477
L 10261 1462
L 10261 1462
L 10331 1444
L 10331 1444
L 10404 1424
L 10404 1424
L 10478 1405
L 10478 1405
L 10547 1386
L 10547 1386
L 10605 1371
L 10605 1371
L 10634 1364
L 10634 1364
L 10686 1350
L 10686 1350
L 10742 1335
L 10742 1335
L 10802 1319
L 10802 1319
L 10861 1302
L 10861 1302
L 10887 1295
L 10887 1295
L 10908 1290
L 10908 1290
L 10926 1286
L 10926 1286
L 10927 1286
L 10928 1287
L 10928 1287
L 10928 1287
L 10927 1291
L 10927 1291
L 10916 1304
L 10916 1304
L 10903 1319
L 10903 1319
L 10887 1337
L 10887 1337
L 10865 1361
L 10865 1361
L 10829 1402
L 10829 1402
L 10789 1450
L 10789 1450
L 10749 1498
L 10749 1498
L 10703 1552
L 10703 1552
L 10645 1621
L 10645 1621
L 10585 1692
L 10585 1692
L 10532 1754
L 10532 1754
L 10359 1958
L 10359 1958
L 10263 2073
L 10263 2073
L 10197 2154
L 10197 2154
L 10194 2160
L 10192 2166
L 10192 2166
L 10193 2172
L 10193 2172
L 10196 2180
L 10196 2180
L 10200 2188
L 10200 2188
L 10206 2196
L 10206 2196
L 10213 2208
L 10213 2208
L 10227 2233
L 10227 2233
L 10243 2263
L 10243 2263
L 10260 2295
L 10260 2295
L 10305 2382
L 10305 2382
L 10357 2481
L 10357 2481
L 10407 2576
L 10407 2576
L 10443 2644
L 10443 2644
L 10477 2708
L 10477 2708
L 10520 2789
L 10520 2789
L 10565 2874
L 10565 2874
L 10605 2951
L 10605 2951
L 10620 2980
L 10620 2980
L 10635 3006
L 10635 3006
L 10647 3028
L 10647 3028
L 10653 3036
L 10653 3036
L 10656 3040
L 10656 3040
L 10658 3045
L 10658 3045
L 10658 3050
L 10658 3050
L 10657 3053
L 10657 3053
L 10655 3054
L 10652 3054
L 10652 3054
L 10633 3051
L 10633 3051
L 10610 3046
L 10610 3046
L 10584 3039
L 10584 3039
L 10554 3031
L 10554 3031
L 10519 3021
L 10519 3021
L 10484 3011
L 10484 3011
L 10456 3004
L 10456 3004
L 10335 2970
L 10335 2970
L 10263 2950
L 10263 2950
L 10211 2935
L 10211 2935
L 10162 2920
L 10162 2920
L 10134 2913
L 10134 2913
L 10108 2906
L 10108 2906
L 10087 2901
L 10087 2901
L 10079 2900
L 10079 2900
L 10071 2899
L 10071 2899
L 10052 2894
L 10052 2894
L 10030 2887
L 10030 2887
L 10006 2879
L 10006 2879
L 9980 2871
L 9980 2871
L 9953 2863
L 9953 2863
L 9929 2856
L 9929 2856
L 9912 2853
L 9878 2846
L 9885 2875
L 9885 2875
L 9887 2890
L 9887 2890
L 9891 2913
L 9891 2913
L 9895 2939
L 9895 2939
L 9899 2965
L 9899 2965
L 9903 2994
L 9903 2994
L 9909 3034
L 9909 3034
L 9916 3077
L 9916 3077
L 9923 3116
L 9923 3116
L 9946 3244
L 9946 3244
L 9958 3317
L 9958 3317
L 9965 3365
L 9965 3365
L 9965 3371
L 9963 3376
L 9963 3376
L 9962 3380
L 9962 3380
L 9962 3383
L 9962 3383
L 9965 3386
L 9965 3386
L 9969 3388
L 9969 3388
L 9988 3393
L 9988 3393
L 10059 3414
L 10059 3414
L 10134 3437
L 10134 3437
L 10201 3458
L 10201 3458
L 10231 3467
L 10231 3467
L 10270 3479
L 10270 3479
L 10309 3491
L 10309 3491
L 10344 3501
L 10344 3501
L 10377 3511
L 10377 3511
L 10414 3523
L 10414 3523
L 10448 3533
L 10448 3533
L 10474 3541
L 10474 3541
L 10499 3549
L 10499 3549
L 10533 3559
L 10533 3559
L 10570 3570
L 10570 3570
L 10604 3580
L 10604 3580
L 10637 3590
L 10637 3590
L 10673 3601
L 10673 3601
L 10706 3611
L 10706 3611
L 10730 3619
L 10730 3619
L 10753 3626
L 10753 3626
L 10782 3633
L 10782 3633
L 10812 3639
L 10812 3639
L 10838 3644
L 10838 3644
L 10868 3648
L 10897 3649
L 10897 3649
L 10927 3647
L 10958 3643
L 10958 3643
L 10989 3637
L 11019 3629
L 11019 3629
L 11050 3618
L 11080 3605
L 11080 3605
L 11107 3590
L 11133 3574
L 11133 3574
L 11157 3555
L 11180 3535
L 11180 3535
L 11201 3513
L 11219 3489
L 11219 3489
L 11236 3464
L 11251 3436
L 11251 3436
L 11265 3404
L 11265 3404
L 11270 3391
L 11274 3377
L 11274 3377
L 11277 3363
L 11279 3348
L 11279 3348
L 11282 3308
L 11282 3308
L 11282 3278
L 11282 3278
L 11281 3245
L 11281 3245
L 11278 3216
L 11278 3216
L 11275 3196
L 11275 3196
L 11268 3174
L 11268 3174
L 11254 3140
L 11254 3140
L 11237 3102
L 11237 3102
L 11219 3064
L 11219 3064
L 11166 2958
L 11166 2958
L 11125 2877
L 11125 2877
L 11091 2812
L 11091 2812
L 11088 2808
L 11085 2804
L 11085 2804
L 11082 2801
L 11082 2801
L 11074 2786
L 11074 2786
L 11064 2768
L 11064 2768
L 11054 2748
L 11054 2748
L 11026 2694
L 11026 2694
L 10972 2590
L 10972 2590
L 10907 2468
L 10907 2468
L 10842 2346
L 10842 2346
L 10824 2311
L 10824 2311
L 10805 2274
L 10805 2274
L 10788 2241
L 10788 2241
L 10776 2217
L 10755 2171
L 10872 2031
L 10872 2031
L 11007 1871
L 11007 1871
L 11103 1756
L 11103 1756
L 11174 1674
L 11174 1674
L 11222 1619
L 11222 1619
L 11247 1589
L 11247 1589
L 11285 1546
L 11285 1546
L 11326 1497
L 11326 1497
L 11365 1450
L 11365 1450
L 11401 1406
L 11401 1406
L 11434 1368
L 11434 1368
L 11461 1335
L 11461 1335
L 11468 1329
L 11468 1329
L 11479 1319
L 11488 1308
L 11488 1308
L 11525 1263
L 11525 1263
L 11563 1214
L 11563 1214
L 11592 1173
L 11592 1173
L 11607 1150
L 11607 1150
L 11623 1122
L 11623 1122
L 11637 1095
L 11637 1095
L 11647 1074
L 11647 1074
L 11657 1046
L 11657 1046
L 11661 1034
L 11663 1021
L 11663 1021
L 11667 992
L 11667 992
L 11668 952
L 11668 952
L 11667 909
L 11667 909
L 11666 896
L 11664 883
L 11664 883
L 11661 873
L 11657 862
L 11657 862
L 11644 837
L 11644 837
L 11632 820
L 11632 820
L 11617 801
L 11617 801
L 11600 785
L 11600 785
L 11585 773
L 11585 773
L 11567 762
L 11547 753
L 11547 753
L 11520 744
L 11494 735
L 11494 735
L 11466 728
L 11438 723
L 11438 723
L 11415 719
L 11391 718
L 11391 718
L 11367 719
L 11344 722
L 11344 722
L 11268 734
L 11268 734
L 11187 751
L 11187 751
L 11153 759
L 11119 769
L 11119 769
L 11094 776
L 11094 776
L 11067 783
L 11067 783
L 11042 790
L 11042 790
L 11023 795
L 11023 795
L 10912 824
L 10912 824
L 10791 855
L 10791 855
L 10681 884
L 10681 884
L 10638 895
L 10638 895
L 10565 916
L 10565 916
L 10490 936
L 10490 936
L 10416 956
L 10416 956
L 10348 973
L 10348 973
L 10308 984
L 10308 984
L 10264 996
L 10264 996
L 10221 1008
L 10221 1008
L 10188 1018
L 10119 1039
L 10101 1016
L 10101 1016
L 10093 1005
L 10093 1005
L 10083 990
L 10083 990
L 10072 972
L 10072 972
L 10063 956
L 10063 956
L 10031 901
L 10031 901
L 9983 820
L 9983 820
L 9934 739
L 9934 739
L 9916 711
L 9916 711
L 9893 674
L 9893 674
L 9863 627
L 9863 627
L 9834 578
L 9834 578
L 9810 537
L 9810 537
L 9798 516
L 9798 516
L 9778 482
L 9778 482
L 9756 444
L 9756 444
L 9733 407
L 9733 407
L 9683 323
L 9631 241
L 9631 241
L 9601 196
L 9570 153
L 9570 153
L 9545 124
L 9518 98
L 9518 98
L 9500 83
L 9481 69
L 9461 57
L 9461 57
L 9442 47
L 9423 39
L 9423 39
L 9399 31
L 9375 24
L 9375 24
L 9351 18
L 9327 13
L 9327 13
L 9310 10
L 9292 10
L 9292 10
L 9281 11
L 9281 11
L 9265 13
L 9265 13
L 9247 16
L 9247 16
L 9230 20
Z
"/>
</g>
<g transform="matrix(0.071919,0.000000,0.000000,0.072009,0.000000,0.000000) " fill="none" stroke="#000000" stroke-width="1" stroke-linejoin="round" stroke-linecap="round" >
<path d="
M 1371 2510
L 1371 2510
L 1333 2515
L 1295 2521
L 1295 2521
L 1256 2529
L 1218 2539
L 1218 2539
L 1180 2551
L 1142 2564
L 1142 2564
L 1103 2580
L 1065 2596
L 1065 2596
L 1019 2620
L 973 2645
L 929 2672
L 887 2701
L 887 2701
L 846 2731
L 808 2764
L 771 2798
L 736 2834
L 736 2834
L 703 2870
L 673 2908
L 645 2948
L 618 2989
L 618 2989
L 595 3030
L 574 3072
L 556 3115
L 540 3159
L 540 3159
L 525 3207
L 525 3207
L 521 3227
L 517 3246
L 517 3246
L 514 3268
L 512 3289
L 512 3289
L 509 3350
L 509 3350
L 507 3411
L 507 3411
L 508 3432
L 509 3453
L 509 3453
L 511 3471
L 514 3490
L 514 3490
L 523 3532
L 523 3532
L 533 3570
L 546 3606
L 561 3642
L 561 3642
L 580 3681
L 600 3720
L 622 3757
L 622 3757
L 649 3800
L 678 3841
L 708 3881
L 708 3881
L 763 3950
L 820 4017
L 820 4017
L 859 4060
L 859 4060
L 919 4123
L 919 4123
L 987 4195
L 987 4195
L 1053 4263
L 1053 4263
L 1117 4330
L 1117 4330
L 1178 4395
L 1178 4395
L 1228 4451
L 1228 4451
L 1254 4481
L 1254 4481
L 1271 4506
L 1271 4506
L 1290 4534
L 1290 4534
L 1307 4562
L 1307 4562
L 1319 4585
L 1319 4585
L 1331 4614
L 1331 4614
L 1335 4626
L 1337 4639
L 1337 4639
L 1340 4652
L 1341 4666
L 1341 4666
L 1342 4704
L 1342 4704
L 1340 4745
L 1340 4745
L 1339 4758
L 1337 4771
L 1337 4771
L 1333 4784
L 1328 4795
L 1328 4795
L 1312 4828
L 1312 4828
L 1298 4853
L 1281 4875
L 1263 4897
L 1263 4897
L 1242 4918
L 1220 4937
L 1196 4954
L 1196 4954
L 1170 4971
L 1143 4985
L 1115 4998
L 1115 4998
L 1085 5009
L 1054 5018
L 1023 5026
L 1023 5026
L 985 5032
L 985 5032
L 957 5035
L 957 5035
L 930 5035
L 930 5035
L 898 5030
L 898 5030
L 873 5025
L 873 5025
L 845 5017
L 845 5017
L 817 5008
L 817 5008
L 796 4999
L 796 4999
L 773 4986
L 752 4972
L 732 4957
L 732 4957
L 711 4937
L 691 4917
L 672 4895
L 672 4895
L 653 4870
L 635 4844
L 619 4817
L 619 4817
L 595 4772
L 574 4725
L 574 4725
L 563 4699
L 563 4699
L 552 4677
L 552 4677
L 543 4659
L 543 4659
L 541 4657
L 539 4657
L 539 4657
L 533 4658
L 533 4658
L 458 4697
L 458 4697
L 374 4741
L 374 4741
L 276 4793
L 276 4793
L 115 4880
L 115 4880
L 86 4896
L 58 4913
L 58 4913
L 44 4923
L 31 4934
L 31 4934
L 28 4939
L 26 4945
L 26 4951
L 26 4951
L 34 4976
L 42 5001
L 42 5001
L 75 5078
L 75 5078
L 110 5155
L 110 5155
L 125 5182
L 140 5209
L 140 5209
L 170 5254
L 202 5297
L 202 5297
L 222 5322
L 244 5345
L 266 5368
L 266 5368
L 290 5388
L 314 5408
L 339 5426
L 339 5426
L 381 5452
L 424 5475
L 424 5475
L 466 5495
L 509 5512
L 509 5512
L 547 5525
L 585 5535
L 585 5535
L 628 5543
L 671 5548
L 671 5548
L 728 5552
L 785 5555
L 785 5555
L 861 5556
L 861 5556
L 919 5555
L 919 5555
L 968 5551
L 968 5551
L 1019 5544
L 1019 5544
L 1058 5537
L 1058 5537
L 1103 5526
L 1103 5526
L 1147 5515
L 1147 5515
L 1183 5505
L 1183 5505
L 1220 5492
L 1256 5477
L 1256 5477
L 1295 5460
L 1334 5441
L 1334 5441
L 1372 5421
L 1409 5400
L 1409 5400
L 1443 5379
L 1476 5357
L 1476 5357
L 1511 5331
L 1544 5304
L 1544 5304
L 1581 5270
L 1617 5234
L 1617 5234
L 1652 5198
L 1685 5161
L 1685 5161
L 1711 5129
L 1735 5095
L 1735 5095
L 1764 5050
L 1790 5004
L 1814 4956
L 1814 4956
L 1835 4908
L 1854 4858
L 1870 4807
L 1870 4807
L 1883 4758
L 1894 4707
L 1901 4656
L 1901 4656
L 1906 4608
L 1908 4559
L 1906 4510
L 1906 4510
L 1903 4477
L 1899 4443
L 1899 4443
L 1893 4410
L 1885 4378
L 1885 4378
L 1875 4347
L 1865 4315
L 1865 4315
L 1852 4285
L 1837 4254
L 1837 4254
L 1824 4228
L 1810 4203
L 1810 4203
L 1775 4147
L 1775 4147
L 1739 4093
L 1739 4093
L 1723 4072
L 1706 4051
L 1706 4051
L 1684 4026
L 1684 4026
L 1620 3957
L 1620 3957
L 1543 3876
L 1543 3876
L 1459 3787
L 1459 3787
L 1293 3611
L 1293 3611
L 1240 3553
L 1187 3494
L 1187 3494
L 1151 3452
L 1117 3409
L 1117 3409
L 1098 3383
L 1082 3355
L 1082 3355
L 1073 3335
L 1067 3314
L 1067 3314
L 1063 3293
L 1061 3271
L 1061 3271
L 1062 3250
L 1064 3229
L 1064 3229
L 1069 3209
L 1077 3189
L 1077 3189
L 1086 3172
L 1097 3157
L 1097 3157
L 1114 3138
L 1131 3121
L 1131 3121
L 1151 3104
L 1172 3088
L 1172 3088
L 1193 3075
L 1215 3063
L 1215 3063
L 1227 3057
L 1240 3052
L 1240 3052
L 1252 3049
L 1264 3046
L 1264 3046
L 1280 3044
L 1295 3043
L 1295 3043
L 1346 3043
L 1346 3043
L 1400 3043
L 1400 3043
L 1415 3044
L 1430 3046
L 1430 3046
L 1443 3049
L 1456 3053
L 1456 3053
L 1486 3067
L 1486 3067
L 1512 3080
L 1536 3096
L 1536 3096
L 1560 3114
L 1582 3134
L 1582 3134
L 1605 3157
L 1626 3181
L 1626 3181
L 1647 3208
L 1666 3236
L 1666 3236
L 1684 3262
L 1684 3262
L 1700 3287
L 1700 3287
L 1714 3308
L 1714 3308
L 1720 3317
L 1720 3317
L 1724 3321
L 1729 3322
L 1734 3321
L 1734 3321
L 1751 3312
L 1767 3302
L 1767 3302
L 1797 3282
L 1826 3261
L 1826 3261
L 1968 3156
L 1968 3156
L 2059 3088
L 2059 3088
L 2136 3030
L 2136 3030
L 2205 2978
L 2205 2978
L 2208 2975
L 2208 2975
L 2211 2971
L 2211 2967
L 2209 2963
L 2209 2963
L 2152 2885
L 2152 2885
L 2122 2847
L 2092 2809
L 2092 2809
L 2066 2779
L 2039 2749
L 2039 2749
L 1998 2709
L 1955 2671
L 1955 2671
L 1928 2649
L 1899 2629
L 1870 2610
L 1870 2610
L 1840 2593
L 1810 2578
L 1779 2565
L 1779 2565
L 1747 2552
L 1714 2541
L 1680 2532
L 1680 2532
L 1644 2524
L 1608 2517
L 1608 2517
L 1569 2512
L 1530 2509
L 1530 2509
L 1490 2507
L 1450 2506
L 1450 2506
L 1410 2507
L 1371 2510
Z
"/>
</g>
<g transform="matrix(0.071919,0.000000,0.000000,0.072009,0.000000,0.000000) " fill="none" stroke="#000000" stroke-width="1" stroke-linejoin="round" stroke-linecap="round" >
<path d="
M 8721 2777
L 8721 2777
L 8431 2965
L 8425 3012
L 8425 3012
L 8421 3043
L 8421 3043
L 8411 3116
L 8411 3116
L 8400 3203
L 8400 3203
L 8388 3298
L 8388 3298
L 8375 3396
L 8375 3396
L 8362 3493
L 8362 3493
L 8351 3577
L 8351 3577
L 8345 3627
L 8345 3627
L 8328 3752
L 8328 3752
L 8302 3945
L 8302 3945
L 8264 4240
L 8264 4240
L 8197 4748
L 8197 4748
L 8162 5015
L 8162 5015
L 8132 5244
L 8132 5244
L 8105 5445
L 8105 5445
L 8102 5464
L 8098 5488
L 8369 5488
L 8640 5488
L 8650 5412
L 8650 5412
L 8656 5370
L 8656 5370
L 8665 5301
L 8665 5301
L 8676 5220
L 8676 5220
L 8686 5139
L 8686 5139
L 8698 5050
L 8698 5050
L 8712 4944
L 8712 4944
L 8726 4838
L 8726 4838
L 8738 4750
L 8738 4750
L 8748 4667
L 8748 4667
L 8760 4579
L 8760 4579
L 8771 4497
L 8771 4497
L 8778 4438
L 8778 4438
L 8784 4393
L 8784 4393
L 8790 4354
L 8790 4354
L 8796 4321
L 8796 4321
L 8797 4320
L 8798 4320
L 8798 4320
L 8800 4320
L 8801 4321
L 8801 4321
L 8855 4402
L 8855 4402
L 8916 4492
L 8916 4492
L 8986 4599
L 8986 4599
L 9071 4727
L 9071 4727
L 9175 4885
L 9175 4885
L 9280 5045
L 9280 5045
L 9371 5183
L 9572 5488
L 9899 5488
L 10225 5488
L 9724 4785
L 9724 4785
L 9532 4515
L 9532 4515
L 9370 4285
L 9370 4285
L 9226 4079
L 9226 4079
L 9225 4075
L 9225 4072
L 9225 4072
L 9226 4068
L 9229 4065
L 9229 4065
L 9314 3972
L 9314 3972
L 9411 3868
L 9411 3868
L 9526 3747
L 9526 3747
L 9686 3578
L 9686 3578
L 9727 3534
L 9767 3489
L 9767 3489
L 9816 3431
L 9816 3431
L 9820 3425
L 9822 3418
L 9823 3411
L 9823 3411
L 9819 3380
L 9815 3349
L 9815 3349
L 9778 3137
L 9778 3137
L 9738 2903
L 9738 2903
L 9736 2901
L 9734 2900
L 9734 2900
L 9731 2902
L 9731 2902
L 9603 3043
L 9603 3043
L 9461 3200
L 9461 3200
L 9294 3386
L 9294 3386
L 9126 3571
L 9126 3571
L 8985 3727
L 8985 3727
L 8857 3868
L 8857 3868
L 8857 3868
L 8856 3868
L 8855 3868
L 8855 3868
L 8855 3866
L 8855 3865
L 8855 3865
L 8860 3821
L 8860 3821
L 8866 3772
L 8866 3772
L 8873 3713
L 8873 3713
L 8906 3466
L 8906 3466
L 8927 3302
L 8927 3302
L 8945 3169
L 8945 3169
L 8963 3030
L 8963 3030
L 8995 2786
L 8995 2786
L 9010 2669
L 9010 2669
L 9019 2592
L 9019 2592
L 9019 2590
L 9017 2589
L 9016 2589
L 9016 2589
L 9012 2590
L 9012 2590
L 8927 2644
L 8927 2644
L 8832 2705
L 8832 2705
L 8721 2777
Z
"/>
</g>
<g transform="matrix(0.071919,0.000000,0.000000,0.072009,0.000000,0.000000) " fill="none" stroke="#000000" stroke-width="1" stroke-linejoin="round" stroke-linecap="round" >
<path d="
M 3259 3286
L 3259 3286
L 3202 3294
L 3145 3305
L 3145 3305
L 3090 3318
L 3035 3333
L 3035 3333
L 2982 3349
L 2929 3368
L 2929 3368
L 2879 3389
L 2831 3412
L 2831 3412
L 2772 3443
L 2716 3476
L 2716 3476
L 2660 3513
L 2605 3552
L 2605 3552
L 2554 3593
L 2504 3636
L 2504 3636
L 2460 3678
L 2419 3723
L 2419 3723
L 2394 3751
L 2371 3780
L 2371 3780
L 2321 3847
L 2321 3847
L 2275 3913
L 2275 3913
L 2257 3942
L 2240 3971
L 2240 3971
L 2222 4005
L 2206 4040
L 2206 4040
L 2187 4083
L 2170 4127
L 2170 4127
L 2153 4170
L 2138 4215
L 2138 4215
L 2126 4250
L 2117 4286
L 2117 4286
L 2112 4310
L 2108 4334
L 2108 4334
L 2089 4464
L 2089 4464
L 2067 4620
L 2067 4620
L 2044 4791
L 2044 4791
L 2021 4966
L 2021 4966
L 1999 5135
L 1999 5135
L 1980 5278
L 1980 5278
L 1970 5354
L 1970 5354
L 1961 5417
L 1961 5417
L 1950 5505
L 1950 5505
L 1937 5599
L 1937 5599
L 1926 5687
L 1926 5687
L 1915 5774
L 1915 5774
L 1902 5867
L 1902 5867
L 1891 5952
L 1891 5952
L 1882 6013
L 1882 6013
L 1876 6061
L 1876 6061
L 1870 6103
L 1870 6103
L 1866 6139
L 1866 6139
L 1866 6145
L 1866 6145
L 1867 6148
L 1870 6150
L 1870 6150
L 1928 6152
L 1928 6152
L 2003 6154
L 2003 6154
L 2108 6154
L 2108 6154
L 2214 6154
L 2214 6154
L 2289 6152
L 2289 6152
L 2346 6150
L 2346 6150
L 2349 6148
L 2350 6145
L 2350 6145
L 2351 6139
L 2351 6139
L 2356 6091
L 2356 6091
L 2363 6037
L 2363 6037
L 2371 5974
L 2371 5974
L 2410 5678
L 2410 5678
L 2432 5515
L 2432 5515
L 2446 5409
L 2446 5409
L 2451 5374
L 2456 5342
L 2514 5379
L 2514 5379
L 2559 5407
L 2605 5433
L 2605 5433
L 2651 5454
L 2697 5474
L 2697 5474
L 2744 5491
L 2793 5505
L 2793 5505
L 2844 5517
L 2897 5527
L 2897 5527
L 2946 5534
L 2946 5534
L 2994 5538
L 2994 5538
L 3048 5539
L 3048 5539
L 3119 5537
L 3119 5537
L 3190 5533
L 3260 5526
L 3260 5526
L 3299 5521
L 3338 5513
L 3376 5504
L 3376 5504
L 3415 5493
L 3453 5481
L 3491 5466
L 3491 5466
L 3559 5437
L 3627 5405
L 3627 5405
L 3673 5382
L 3718 5356
L 3762 5329
L 3762 5329
L 3804 5300
L 3846 5269
L 3886 5237
L 3886 5237
L 3926 5203
L 3964 5167
L 4001 5130
L 4001 5130
L 4036 5092
L 4070 5052
L 4103 5010
L 4103 5010
L 4138 4961
L 4171 4911
L 4202 4859
L 4202 4859
L 4230 4807
L 4256 4754
L 4279 4699
L 4279 4699
L 4299 4644
L 4316 4589
L 4331 4532
L 4331 4532
L 4343 4475
L 4352 4417
L 4358 4359
L 4358 4359
L 4362 4302
L 4362 4246
L 4360 4190
L 4355 4134
L 4355 4134
L 4347 4080
L 4336 4027
L 4322 3974
L 4306 3922
L 4306 3922
L 4286 3872
L 4264 3823
L 4239 3775
L 4212 3729
L 4212 3729
L 4182 3684
L 4149 3641
L 4115 3601
L 4077 3562
L 4077 3562
L 4043 3530
L 4007 3499
L 3970 3470
L 3970 3470
L 3933 3444
L 3894 3419
L 3854 3397
L 3854 3397
L 3812 3376
L 3769 3358
L 3726 3341
L 3726 3341
L 3679 3326
L 3632 3313
L 3584 3302
L 3584 3302
L 3552 3296
L 3519 3292
L 3519 3292
L 3469 3289
L 3419 3286
L 3419 3286
L 3320 3283
L 3320 3283
L 3289 3283
L 3259 3286
Z
"/>
</g>
<g transform="matrix(0.071919,0.000000,0.000000,0.072009,0.000000,0.000000) " fill="none" stroke="#000000" stroke-width="1" stroke-linejoin="round" stroke-linecap="round" >
<path d="
M 3459 3796
L 3459 3796
L 3496 3806
L 3531 3820
L 3566 3835
L 3599 3853
L 3599 3853
L 3631 3874
L 3661 3896
L 3690 3921
L 3717 3948
L 3717 3948
L 3742 3976
L 3765 4006
L 3785 4038
L 3804 4071
L 3804 4071
L 3820 4105
L 3833 4140
L 3844 4176
L 3853 4213
L 3853 4213
L 3857 4242
L 3857 4242
L 3861 4275
L 3861 4275
L 3864 4307
L 3864 4307
L 3865 4332
L 3865 4332
L 3864 4362
L 3861 4392
L 3861 4392
L 3857 4425
L 3851 4457
L 3851 4457
L 3843 4490
L 3834 4522
L 3834 4522
L 3824 4553
L 3813 4583
L 3813 4583
L 3796 4621
L 3776 4658
L 3755 4694
L 3732 4729
L 3732 4729
L 3706 4763
L 3679 4795
L 3651 4825
L 3620 4855
L 3620 4855
L 3588 4882
L 3555 4908
L 3520 4932
L 3483 4954
L 3483 4954
L 3446 4974
L 3408 4992
L 3368 5008
L 3328 5022
L 3328 5022
L 3288 5032
L 3288 5032
L 3271 5036
L 3253 5038
L 3253 5038
L 3231 5040
L 3209 5041
L 3209 5041
L 3138 5041
L 3138 5041
L 3067 5040
L 3067 5040
L 3046 5040
L 3025 5038
L 3025 5038
L 3008 5035
L 2992 5032
L 2992 5032
L 2974 5027
L 2956 5021
L 2956 5021
L 2925 5009
L 2894 4995
L 2894 4995
L 2867 4982
L 2841 4967
L 2841 4967
L 2816 4950
L 2793 4931
L 2793 4931
L 2768 4910
L 2744 4887
L 2744 4887
L 2721 4863
L 2699 4837
L 2699 4837
L 2680 4814
L 2664 4789
L 2664 4789
L 2648 4763
L 2635 4736
L 2635 4736
L 2621 4705
L 2609 4674
L 2609 4674
L 2604 4657
L 2599 4639
L 2599 4639
L 2595 4623
L 2593 4606
L 2593 4606
L 2591 4585
L 2590 4565
L 2590 4565
L 2589 4497
L 2589 4497
L 2589 4425
L 2589 4425
L 2590 4404
L 2592 4383
L 2592 4383
L 2595 4365
L 2599 4347
L 2599 4347
L 2612 4302
L 2612 4302
L 2625 4265
L 2639 4230
L 2656 4195
L 2656 4195
L 2675 4160
L 2695 4126
L 2718 4093
L 2718 4093
L 2742 4062
L 2767 4031
L 2794 4002
L 2794 4002
L 2821 3975
L 2850 3949
L 2881 3925
L 2881 3925
L 2918 3899
L 2956 3875
L 2956 3875
L 2999 3853
L 3042 3833
L 3042 3833
L 3086 3815
L 3130 3800
L 3130 3800
L 3170 3790
L 3211 3782
L 3211 3782
L 3240 3779
L 3269 3778
L 3269 3778
L 3303 3778
L 3336 3779
L 3336 3779
L 3370 3781
L 3403 3785
L 3403 3785
L 3432 3790
L 3459 3796
Z
"/>
</g>
<g transform="matrix(0.071919,0.000000,0.000000,0.072009,0.000000,0.000000) " fill="none" stroke="#000000" stroke-width="1" stroke-linejoin="round" stroke-linecap="round" >
<path d="
M 5691 3289
L 5691 3289
L 5635 3298
L 5578 3310
L 5578 3310
L 5525 3323
L 5472 3339
L 5472 3339
L 5419 3357
L 5367 3378
L 5367 3378
L 5312 3402
L 5259 3429
L 5259 3429
L 5213 3454
L 5167 3480
L 5167 3480
L 5124 3509
L 5082 3538
L 5082 3538
L 5041 3570
L 5001 3604
L 5001 3604
L 4960 3641
L 4921 3679
L 4921 3679
L 4876 3727
L 4834 3776
L 4794 3828
L 4794 3828
L 4756 3881
L 4722 3936
L 4690 3992
L 4690 3992
L 4661 4050
L 4635 4110
L 4612 4170
L 4612 4170
L 4592 4232
L 4575 4295
L 4561 4358
L 4561 4358
L 4554 4402
L 4549 4447
L 4549 4447
L 4546 4502
L 4545 4557
L 4545 4557
L 4546 4612
L 4549 4667
L 4549 4667
L 4553 4711
L 4560 4754
L 4560 4754
L 4568 4791
L 4578 4828
L 4578 4828
L 4589 4866
L 4602 4904
L 4602 4904
L 4615 4941
L 4630 4977
L 4630 4977
L 4643 5008
L 4659 5038
L 4659 5038
L 4685 5084
L 4715 5128
L 4715 5128
L 4750 5173
L 4787 5217
L 4787 5217
L 4825 5259
L 4866 5298
L 4866 5298
L 4906 5332
L 4948 5364
L 4948 5364
L 4992 5393
L 5038 5420
L 5038 5420
L 5087 5444
L 5137 5466
L 5137 5466
L 5189 5485
L 5241 5502
L 5241 5502
L 5295 5516
L 5348 5526
L 5348 5526
L 5394 5533
L 5440 5537
L 5440 5537
L 5494 5539
L 5548 5540
L 5548 5540
L 5602 5538
L 5656 5534
L 5656 5534
L 5703 5529
L 5749 5522
L 5749 5522
L 5784 5515
L 5818 5506
L 5818 5506
L 5853 5498
L 5887 5488
L 5887 5488
L 5920 5477
L 5953 5466
L 5953 5466
L 5983 5455
L 6013 5443
L 6013 5443
L 6028 5435
L 6041 5425
L 6041 5425
L 6047 5419
L 6052 5412
L 6055 5404
L 6055 5404
L 6060 5383
L 6063 5361
L 6063 5361
L 6090 5159
L 6090 5159
L 6101 5077
L 6101 5077
L 6111 4999
L 6111 4999
L 6120 4932
L 6120 4932
L 6124 4899
L 6124 4899
L 6134 4833
L 6134 4833
L 6133 4826
L 6131 4820
L 6131 4820
L 6128 4817
L 6125 4817
L 6122 4818
L 6122 4818
L 6092 4845
L 6092 4845
L 6059 4874
L 6025 4900
L 6025 4900
L 5988 4926
L 5950 4949
L 5950 4949
L 5910 4971
L 5870 4990
L 5870 4990
L 5828 5007
L 5786 5022
L 5786 5022
L 5747 5032
L 5747 5032
L 5729 5036
L 5711 5038
L 5711 5038
L 5689 5040
L 5667 5041
L 5667 5041
L 5596 5041
L 5596 5041
L 5519 5040
L 5519 5040
L 5499 5039
L 5479 5037
L 5479 5037
L 5462 5034
L 5445 5030
L 5445 5030
L 5400 5014
L 5400 5014
L 5369 5001
L 5369 5001
L 5335 4986
L 5335 4986
L 5304 4970
L 5304 4970
L 5281 4955
L 5281 4955
L 5255 4937
L 5231 4917
L 5231 4917
L 5205 4892
L 5181 4866
L 5181 4866
L 5158 4839
L 5136 4810
L 5136 4810
L 5119 4785
L 5104 4759
L 5104 4759
L 5087 4722
L 5073 4684
L 5062 4645
L 5053 4605
L 5053 4605
L 5047 4564
L 5044 4522
L 5043 4480
L 5045 4438
L 5045 4438
L 5050 4396
L 5058 4353
L 5069 4312
L 5082 4271
L 5082 4271
L 5098 4230
L 5116 4190
L 5137 4152
L 5160 4115
L 5160 4115
L 5187 4076
L 5217 4040
L 5249 4005
L 5282 3972
L 5318 3942
L 5318 3942
L 5355 3913
L 5395 3887
L 5435 3864
L 5477 3843
L 5520 3825
L 5520 3825
L 5564 3810
L 5608 3797
L 5652 3788
L 5698 3781
L 5743 3777
L 5743 3777
L 5787 3776
L 5831 3779
L 5875 3784
L 5918 3793
L 5960 3805
L 5960 3805
L 5996 3818
L 6031 3834
L 6065 3852
L 6065 3852
L 6097 3873
L 6127 3897
L 6154 3922
L 6154 3922
L 6180 3951
L 6204 3982
L 6225 4014
L 6225 4014
L 6244 4050
L 6261 4086
L 6275 4124
L 6275 4124
L 6286 4159
L 6295 4195
L 6301 4230
L 6301 4230
L 6307 4272
L 6311 4314
L 6314 4355
L 6314 4355
L 6315 4403
L 6315 4450
L 6313 4498
L 6313 4498
L 6307 4577
L 6298 4657
L 6298 4657
L 6288 4729
L 6288 4729
L 6273 4849
L 6273 4849
L 6255 4985
L 6255 4985
L 6237 5122
L 6237 5122
L 6220 5250
L 6220 5250
L 6206 5361
L 6206 5361
L 6194 5457
L 6194 5457
L 6193 5470
L 6193 5470
L 6194 5475
L 6197 5479
L 6201 5481
L 6201 5481
L 6213 5484
L 6225 5485
L 6225 5485
L 6251 5487
L 6277 5487
L 6277 5487
L 6433 5486
L 6674 5483
L 6688 5366
L 6688 5366
L 6696 5308
L 6696 5308
L 6706 5225
L 6706 5225
L 6718 5135
L 6718 5135
L 6729 5051
L 6729 5051
L 6741 4965
L 6741 4965
L 6753 4871
L 6753 4871
L 6765 4783
L 6765 4783
L 6773 4717
L 6773 4717
L 6781 4658
L 6781 4658
L 6790 4592
L 6790 4592
L 6798 4529
L 6798 4529
L 6805 4479
L 6805 4479
L 6811 4430
L 6815 4380
L 6815 4380
L 6818 4324
L 6819 4269
L 6819 4269
L 6819 4216
L 6817 4164
L 6817 4164
L 6814 4125
L 6809 4085
L 6809 4085
L 6801 4050
L 6793 4015
L 6793 4015
L 6782 3976
L 6770 3938
L 6770 3938
L 6756 3900
L 6742 3863
L 6742 3863
L 6727 3830
L 6711 3797
L 6711 3797
L 6685 3750
L 6656 3705
L 6625 3662
L 6592 3620
L 6592 3620
L 6557 3581
L 6519 3544
L 6480 3509
L 6438 3476
L 6438 3476
L 6394 3445
L 6349 3417
L 6302 3392
L 6253 3369
L 6253 3369
L 6202 3348
L 6149 3330
L 6096 3315
L 6042 3302
L 6042 3302
L 6005 3295
L 5969 3291
L 5969 3291
L 5918 3288
L 5866 3285
L 5866 3285
L 5815 3284
L 5764 3284
L 5764 3284
L 5728 3285
L 5691 3289
Z
"/>
</g>
<g transform="matrix(0.071919,0.000000,0.000000,0.072009,0.000000,0.000000) " fill="none" stroke="#000000" stroke-width="1" stroke-linejoin="round" stroke-linecap="round" >
<path d="
M 7695 3342
L 7695 3342
L 7668 3347
L 7641 3352
L 7641 3352
L 7615 3358
L 7590 3366
L 7590 3366
L 7564 3374
L 7540 3384
L 7540 3384
L 7514 3395
L 7490 3407
L 7490 3407
L 7462 3421
L 7436 3436
L 7436 3436
L 7411 3453
L 7386 3470
L 7386 3470
L 7362 3489
L 7339 3509
L 7339 3509
L 7315 3531
L 7292 3554
L 7292 3554
L 7264 3585
L 7238 3617
L 7238 3617
L 7215 3649
L 7194 3682
L 7194 3682
L 7175 3716
L 7158 3751
L 7158 3751
L 7142 3788
L 7129 3827
L 7129 3827
L 7125 3842
L 7121 3858
L 7121 3858
L 7110 3915
L 7110 3915
L 7099 3981
L 7099 3981
L 7090 4049
L 7090 4049
L 7080 4124
L 7080 4124
L 7068 4214
L 7068 4214
L 7056 4303
L 7056 4303
L 7046 4378
L 7046 4378
L 7036 4454
L 7036 4454
L 7023 4551
L 7023 4551
L 7010 4651
L 7010 4651
L 6999 4739
L 6999 4739
L 6986 4834
L 6986 4834
L 6970 4957
L 6970 4957
L 6953 5086
L 6953 5086
L 6938 5202
L 6938 5202
L 6925 5304
L 6925 5304
L 6913 5391
L 6913 5391
L 6904 5468
L 6904 5468
L 6903 5477
L 6903 5477
L 6905 5481
L 6909 5483
L 6909 5483
L 6954 5485
L 6954 5485
L 7024 5487
L 7024 5487
L 7153 5488
L 7402 5488
L 7412 5408
L 7412 5408
L 7419 5355
L 7419 5355
L 7437 5216
L 7437 5216
L 7459 5050
L 7459 5050
L 7483 4869
L 7483 4869
L 7508 4678
L 7508 4678
L 7533 4485
L 7533 4485
L 7555 4315
L 7555 4315
L 7570 4207
L 7570 4207
L 7580 4126
L 7580 4126
L 7591 4053
L 7591 4053
L 7600 3992
L 7600 3992
L 7605 3970
L 7605 3970
L 7611 3955
L 7611 3955
L 7620 3937
L 7620 3937
L 7633 3918
L 7633 3918
L 7645 3903
L 7645 3903
L 7664 3883
L 7685 3866
L 7685 3866
L 7697 3858
L 7709 3852
L 7723 3847
L 7723 3847
L 7750 3842
L 7778 3839
L 7778 3839
L 7907 3835
L 8085 3830
L 8090 3787
L 8090 3787
L 8108 3646
L 8108 3646
L 8126 3511
L 8126 3511
L 8142 3391
L 8142 3391
L 8147 3360
L 8152 3332
L 7949 3334
L 7949 3334
L 7868 3334
L 7868 3334
L 7791 3336
L 7791 3336
L 7727 3339
L 7727 3339
L 7695 3342
Z
"/>
</g>
</g >
</g >
</svg>
