<?xml version="1.0" standalone="no"?>
<!DOCTYPE svg PUBLIC "-//W3C//DTD SVG 1.1//EN"
  "http://www.w3.org/Graphics/SVG/1.1/DTD/svg11.dtd">
<svg version="1.1" xmlns="http://www.w3.org/2000/svg" xmlns:xlink="http://www.w3.org/1999/xlink">
<title></title>
<g xml:space='preserve' >
<clipPath id="clippath0" transform="matrix(0.071919,0.000000,0.000000,0.072007,0.000000,0.000000) "  >
<path d="
M 0 0
L 0 0
L 0 6109
L 11706 6109
L 11706 0
Z
" style="clip-rule:nonzero"/>
</clipPath>
<g style="clip-path:url(#clippath0)">
<g transform="matrix(0.071919,0.000000,0.000000,0.072007,0.000000,0.000000) " fill="none" stroke="#000000" stroke-width="1" stroke-linejoin="round" stroke-linecap="round" >
<path d="
M 9087 153
L 9087 153
L 9068 176
L 9050 200
L 9034 225
L 9020 251
L 9020 251
L 8998 299
L 8978 347
L 8960 397
L 8960 397
L 8939 462
L 8920 529
L 8904 596
L 8904 596
L 8875 731
L 8849 867
L 8744 1438
L 8198 1621
L 8198 1621
L 8007 1686
L 7817 1753
L 7817 1753
L 7750 1778
L 7685 1806
L 7620 1837
L 7620 1837
L 7587 1855
L 7554 1875
L 7523 1897
L 7493 1920
L 7493 1920
L 7464 1946
L 7436 1972
L 7410 2001
L 7386 2030
L 7386 2030
L 7371 2050
L 7358 2071
L 7346 2093
L 7346 2093
L 7340 2109
L 7336 2127
L 7336 2145
L 7336 2145
L 7339 2165
L 7344 2184
L 7352 2202
L 7352 2202
L 7377 2247
L 7404 2290
L 7404 2290
L 7423 2316
L 7444 2340
L 7468 2362
L 7468 2362
L 7528 2410
L 7590 2456
L 7590 2456
L 7639 2489
L 7689 2521
L 7740 2552
L 7740 2552
L 7818 2597
L 7898 2638
L 8291 2832
L 8568 2682
L 8568 2682
L 8676 2621
L 8676 2621
L 8724 2593
L 8772 2564
L 8772 2564
L 8850 2513
L 8850 2513
L 8862 2503
L 8872 2491
L 8872 2491
L 8874 2485
L 8874 2479
L 8871 2473
L 8867 2469
L 8867 2469
L 8825 2444
L 8783 2421
L 8783 2421
L 8727 2393
L 8671 2366
L 8671 2366
L 8602 2337
L 8532 2309
L 8532 2309
L 8462 2281
L 8393 2252
L 8393 2252
L 8333 2226
L 8275 2199
L 8275 2199
L 8179 2151
L 8179 2151
L 8173 2147
L 8169 2140
L 8168 2133
L 8168 2133
L 8169 2126
L 8173 2120
L 8180 2116
L 8180 2116
L 8311 2067
L 8311 2067
L 8389 2040
L 8468 2014
L 8468 2014
L 8561 1986
L 8654 1958
L 8654 1958
L 8770 1923
L 8885 1886
L 8999 1848
L 8999 1848
L 9022 1838
L 9045 1826
L 9065 1813
L 9085 1797
L 9103 1780
L 9119 1761
L 9119 1761
L 9138 1734
L 9154 1706
L 9167 1677
L 9178 1646
L 9186 1615
L 9186 1615
L 9233 1380
L 9277 1144
L 9352 729
L 9586 1129
L 9586 1129
L 9632 1207
L 9679 1285
L 9679 1285
L 9721 1353
L 9765 1421
L 9765 1421
L 9840 1532
L 9840 1532
L 9848 1543
L 9858 1552
L 9868 1559
L 9868 1559
L 9880 1565
L 9892 1567
L 9905 1566
L 9905 1566
L 9976 1553
L 10047 1539
L 10047 1539
L 10132 1520
L 10217 1499
L 10217 1499
L 10313 1474
L 10409 1447
L 10409 1447
L 10503 1420
L 10598 1394
L 10598 1394
L 10677 1374
L 10757 1354
L 10757 1354
L 10891 1323
L 10891 1323
L 10896 1324
L 10900 1327
L 10901 1331
L 10901 1331
L 10900 1341
L 10895 1350
L 10895 1350
L 10803 1462
L 10803 1462
L 10750 1527
L 10695 1591
L 10695 1591
L 10567 1739
L 10567 1739
L 10502 1814
L 10439 1890
L 10439 1890
L 10384 1959
L 10331 2030
L 10331 2030
L 10289 2089
L 10247 2149
L 10247 2149
L 10239 2163
L 10235 2178
L 10233 2194
L 10233 2194
L 10234 2210
L 10237 2226
L 10243 2241
L 10243 2241
L 10269 2301
L 10297 2361
L 10297 2361
L 10331 2433
L 10367 2504
L 10367 2504
L 10409 2581
L 10451 2658
L 10451 2658
L 10492 2733
L 10531 2808
L 10531 2808
L 10561 2870
L 10590 2933
L 10590 2933
L 10610 2982
L 10629 3031
L 10629 3031
L 10630 3037
L 10628 3042
L 10623 3046
L 10618 3047
L 10618 3047
L 10601 3046
L 10585 3043
L 10585 3043
L 10495 3020
L 10495 3020
L 10387 2991
L 10387 2991
L 10269 2956
L 10269 2956
L 10151 2921
L 10151 2921
L 10043 2892
L 10043 2892
L 9952 2870
L 9952 2870
L 9935 2867
L 9919 2866
L 9919 2866
L 9911 2867
L 9905 2870
L 9899 2875
L 9895 2881
L 9894 2889
L 9894 2889
L 9893 2916
L 9893 2944
L 9895 2971
L 9895 2971
L 9901 3015
L 9909 3059
L 9918 3103
L 9918 3103
L 9942 3203
L 9968 3302
L 9968 3302
L 9973 3316
L 9980 3328
L 9989 3340
L 9999 3350
L 9999 3350
L 10024 3369
L 10050 3387
L 10076 3404
L 10076 3404
L 10111 3423
L 10147 3441
L 10183 3457
L 10183 3457
L 10247 3482
L 10312 3504
L 10312 3504
L 10443 3547
L 10443 3547
L 10575 3594
L 10575 3594
L 10691 3638
L 10691 3638
L 10728 3653
L 10765 3670
L 10765 3670
L 10788 3681
L 10813 3690
L 10838 3697
L 10838 3697
L 10859 3702
L 10881 3705
L 10903 3705
L 10903 3705
L 10926 3703
L 10948 3699
L 10970 3692
L 10970 3692
L 11009 3677
L 11046 3659
L 11046 3659
L 11067 3647
L 11088 3633
L 11107 3618
L 11107 3618
L 11139 3591
L 11169 3561
L 11169 3561
L 11197 3529
L 11222 3496
L 11222 3496
L 11236 3476
L 11248 3456
L 11259 3434
L 11259 3434
L 11268 3410
L 11275 3384
L 11280 3358
L 11281 3332
L 11281 3332
L 11280 3302
L 11277 3273
L 11272 3244
L 11265 3215
L 11265 3215
L 11246 3158
L 11224 3101
L 11200 3046
L 11200 3046
L 11125 2891
L 11049 2736
L 11049 2736
L 10971 2579
L 10895 2421
L 10895 2421
L 10872 2369
L 10852 2316
L 10835 2263
L 10835 2263
L 10829 2238
L 10825 2213
L 10824 2188
L 10825 2163
L 10825 2163
L 10828 2141
L 10835 2121
L 10844 2102
L 10857 2085
L 10857 2085
L 10909 2023
L 10909 2023
L 11028 1883
L 11028 1883
L 11169 1717
L 11169 1717
L 11320 1539
L 11320 1539
L 11403 1439
L 11483 1337
L 11561 1233
L 11561 1233
L 11586 1196
L 11609 1158
L 11629 1118
L 11647 1077
L 11662 1035
L 11662 1035
L 11667 1011
L 11670 987
L 11671 963
L 11668 939
L 11663 915
L 11655 893
L 11655 893
L 11644 870
L 11630 848
L 11615 828
L 11598 810
L 11578 793
L 11558 778
L 11558 778
L 11537 767
L 11515 759
L 11492 754
L 11469 752
L 11446 753
L 11446 753
L 11356 764
L 11268 777
L 11179 792
L 11179 792
L 11048 818
L 10918 846
L 10788 877
L 10788 877
L 10490 953
L 10192 1031
L 10192 1031
L 10182 1032
L 10171 1031
L 10161 1026
L 10153 1020
L 10153 1020
L 10109 969
L 10067 918
L 10067 918
L 10016 851
L 9968 783
L 9968 783
L 9916 702
L 9865 619
L 9865 619
L 9809 527
L 9751 437
L 9691 348
L 9691 348
L 9656 299
L 9619 251
L 9580 205
L 9540 160
L 9540 160
L 9508 129
L 9476 100
L 9441 72
L 9405 46
L 9405 46
L 9384 34
L 9361 24
L 9338 16
L 9313 12
L 9289 10
L 9289 10
L 9277 11
L 9265 14
L 9254 19
L 9254 19
L 9227 35
L 9202 52
L 9202 52
L 9172 75
L 9144 99
L 9144 99
L 9115 125
L 9087 153
Z
"/>
</g>
<g transform="matrix(0.071919,0.000000,0.000000,0.072007,0.000000,0.000000) " fill="none" stroke="#000000" stroke-width="1" stroke-linejoin="round" stroke-linecap="round" >
<path d="
M 1181 2476
L 1181 2476
L 1127 2501
L 1074 2529
L 1022 2559
L 971 2591
L 922 2626
L 875 2663
L 875 2663
L 832 2700
L 790 2740
L 751 2781
L 715 2825
L 680 2871
L 649 2918
L 649 2918
L 622 2963
L 598 3009
L 577 3057
L 558 3106
L 543 3156
L 531 3207
L 531 3207
L 523 3248
L 519 3289
L 517 3331
L 518 3372
L 521 3413
L 527 3454
L 536 3494
L 536 3494
L 545 3522
L 557 3549
L 571 3574
L 571 3574
L 624 3651
L 678 3726
L 678 3726
L 745 3814
L 814 3900
L 814 3900
L 890 3991
L 968 4079
L 968 4079
L 1045 4167
L 1120 4257
L 1120 4257
L 1185 4339
L 1247 4424
L 1247 4424
L 1297 4495
L 1345 4567
L 1345 4567
L 1353 4582
L 1359 4598
L 1363 4614
L 1364 4631
L 1364 4631
L 1362 4653
L 1358 4674
L 1351 4695
L 1342 4714
L 1330 4733
L 1330 4733
L 1308 4760
L 1283 4786
L 1257 4810
L 1230 4832
L 1230 4832
L 1198 4854
L 1165 4874
L 1130 4891
L 1094 4906
L 1094 4906
L 1061 4917
L 1027 4925
L 992 4930
L 957 4931
L 957 4931
L 935 4930
L 914 4926
L 893 4919
L 893 4919
L 869 4908
L 845 4895
L 822 4881
L 822 4881
L 797 4864
L 773 4845
L 751 4824
L 751 4824
L 729 4801
L 708 4777
L 688 4752
L 556 4573
L 307 4699
L 307 4699
L 210 4748
L 210 4748
L 125 4793
L 125 4793
L 53 4831
L 53 4831
L 45 4836
L 38 4842
L 38 4842
L 30 4851
L 25 4862
L 23 4874
L 24 4886
L 28 4898
L 28 4898
L 61 4955
L 95 5012
L 130 5068
L 130 5068
L 169 5126
L 210 5182
L 254 5238
L 254 5238
L 280 5268
L 308 5297
L 337 5325
L 368 5351
L 368 5351
L 397 5372
L 428 5391
L 459 5409
L 459 5409
L 493 5424
L 527 5437
L 562 5448
L 562 5448
L 601 5458
L 641 5465
L 682 5471
L 682 5471
L 730 5475
L 779 5477
L 827 5478
L 827 5478
L 891 5476
L 956 5472
L 956 5472
L 1026 5464
L 1095 5453
L 1095 5453
L 1161 5441
L 1226 5427
L 1226 5427
L 1259 5418
L 1291 5407
L 1323 5395
L 1323 5395
L 1361 5378
L 1398 5359
L 1433 5338
L 1468 5315
L 1501 5290
L 1501 5290
L 1547 5252
L 1590 5212
L 1632 5171
L 1672 5127
L 1672 5127
L 1711 5080
L 1748 5031
L 1783 4981
L 1815 4929
L 1815 4929
L 1843 4879
L 1868 4827
L 1890 4774
L 1910 4720
L 1910 4720
L 1923 4675
L 1933 4628
L 1940 4581
L 1943 4534
L 1943 4487
L 1943 4487
L 1939 4440
L 1933 4393
L 1922 4346
L 1909 4301
L 1892 4257
L 1892 4257
L 1868 4203
L 1841 4151
L 1812 4100
L 1780 4050
L 1745 4002
L 1745 4002
L 1681 3922
L 1616 3842
L 1548 3765
L 1479 3689
L 1479 3689
L 1402 3604
L 1328 3518
L 1255 3429
L 1255 3429
L 1229 3394
L 1205 3357
L 1183 3318
L 1163 3279
L 1146 3239
L 1146 3239
L 1139 3217
L 1134 3196
L 1132 3174
L 1132 3152
L 1135 3130
L 1140 3108
L 1140 3108
L 1147 3090
L 1156 3072
L 1168 3057
L 1183 3044
L 1199 3032
L 1217 3024
L 1217 3024
L 1249 3013
L 1281 3004
L 1314 2996
L 1347 2991
L 1347 2991
L 1376 2989
L 1405 2989
L 1433 2992
L 1462 2997
L 1462 2997
L 1488 3006
L 1514 3016
L 1539 3029
L 1562 3045
L 1562 3045
L 1586 3064
L 1609 3085
L 1630 3108
L 1650 3132
L 1759 3277
L 1985 3117
L 1985 3117
L 2029 3085
L 2072 3051
L 2072 3051
L 2110 3019
L 2145 2985
L 2145 2985
L 2173 2956
L 2200 2926
L 2200 2926
L 2207 2916
L 2211 2904
L 2213 2892
L 2213 2892
L 2212 2873
L 2208 2853
L 2201 2835
L 2191 2818
L 2179 2802
L 2179 2802
L 2133 2753
L 2084 2705
L 2034 2659
L 2034 2659
L 1979 2612
L 1922 2567
L 1863 2525
L 1863 2525
L 1826 2501
L 1788 2480
L 1749 2461
L 1709 2444
L 1709 2444
L 1661 2427
L 1612 2411
L 1563 2398
L 1563 2398
L 1538 2392
L 1512 2388
L 1486 2387
L 1460 2387
L 1460 2387
L 1423 2391
L 1387 2399
L 1352 2410
L 1352 2410
L 1266 2441
L 1181 2476
Z
"/>
</g>
<g transform="matrix(0.071919,0.000000,0.000000,0.072007,0.000000,0.000000) " fill="none" stroke="#000000" stroke-width="1" stroke-linejoin="round" stroke-linecap="round" >
<path d="
M 8709 2699
L 8709 2699
L 8430 2889
L 8296 3956
L 8296 3956
L 8241 4379
L 8241 4379
L 8190 4768
L 8190 4768
L 8146 5094
L 8146 5094
L 8137 5159
L 8126 5223
L 8092 5424
L 8388 5406
L 8684 5387
L 8730 4992
L 8730 4992
L 8761 4731
L 8795 4470
L 8795 4470
L 8798 4456
L 8804 4443
L 8813 4431
L 8823 4421
L 8836 4413
L 8850 4407
L 8850 4407
L 8864 4405
L 8878 4406
L 8892 4409
L 8905 4416
L 8917 4424
L 8926 4435
L 8926 4435
L 9070 4647
L 9213 4860
L 9582 5417
L 9948 5417
L 10315 5417
L 10191 5280
L 10191 5280
L 10155 5239
L 10120 5196
L 10120 5196
L 9983 5017
L 9983 5017
L 9824 4802
L 9824 4802
L 9658 4574
L 9250 4005
L 9556 3693
L 9556 3693
L 9650 3596
L 9742 3496
L 9742 3496
L 9763 3472
L 9782 3446
L 9799 3418
L 9814 3390
L 9814 3390
L 9824 3365
L 9832 3339
L 9836 3312
L 9838 3285
L 9838 3285
L 9837 3231
L 9833 3177
L 9827 3124
L 9827 3124
L 9819 3074
L 9810 3025
L 9810 3025
L 9800 2983
L 9788 2941
L 9788 2941
L 9777 2910
L 9764 2879
L 9764 2879
L 9759 2872
L 9752 2867
L 9744 2866
L 9744 2866
L 9733 2867
L 9722 2871
L 9714 2878
L 9714 2878
L 9598 2991
L 9598 2991
L 9531 3059
L 9465 3128
L 9465 3128
L 9391 3210
L 9317 3291
L 9317 3291
L 9244 3373
L 9170 3454
L 9170 3454
L 9108 3521
L 9044 3587
L 9044 3587
L 8934 3700
L 8934 3700
L 8930 3702
L 8925 3702
L 8921 3700
L 8921 3700
L 8915 3693
L 8911 3684
L 8909 3676
L 8909 3666
L 8909 3666
L 8960 3245
L 8960 3245
L 8985 3053
L 9011 2861
L 9011 2861
L 9022 2786
L 9036 2712
L 9051 2638
L 9051 2638
L 9056 2612
L 9059 2586
L 9059 2586
L 9060 2564
L 9059 2542
L 9059 2542
L 9055 2528
L 9050 2514
L 9050 2514
L 9046 2509
L 9041 2506
L 9034 2505
L 9034 2505
L 9019 2508
L 9005 2514
L 9005 2514
L 8920 2564
L 8920 2564
L 8869 2594
L 8819 2626
L 8819 2626
L 8709 2699
Z
"/>
</g>
<g transform="matrix(0.071919,0.000000,0.000000,0.072007,0.000000,0.000000) " fill="none" stroke="#000000" stroke-width="1" stroke-linejoin="round" stroke-linecap="round" >
<path d="
M 3052 3239
L 3052 3239
L 3000 3255
L 2949 3275
L 2900 3297
L 2852 3322
L 2806 3351
L 2806 3351
L 2751 3388
L 2697 3427
L 2645 3468
L 2594 3510
L 2544 3554
L 2544 3554
L 2496 3600
L 2450 3648
L 2405 3697
L 2362 3747
L 2321 3799
L 2321 3799
L 2289 3843
L 2260 3889
L 2234 3937
L 2211 3986
L 2191 4036
L 2191 4036
L 2175 4084
L 2161 4133
L 2149 4182
L 2149 4182
L 2123 4311
L 2098 4441
L 2098 4441
L 2071 4592
L 2046 4743
L 2046 4743
L 2024 4898
L 2003 5053
L 2003 5053
L 1965 5353
L 1965 5353
L 1927 5629
L 1927 5629
L 1894 5860
L 1894 5860
L 1887 5904
L 1878 5949
L 1878 5949
L 1873 5974
L 1871 6000
L 1870 6026
L 1870 6026
L 1872 6037
L 1877 6048
L 1884 6057
L 1894 6064
L 1894 6064
L 1913 6073
L 1933 6079
L 1954 6082
L 1954 6082
L 2034 6084
L 2114 6085
L 2114 6085
L 2198 6084
L 2282 6080
L 2282 6080
L 2300 6077
L 2318 6072
L 2335 6065
L 2350 6055
L 2350 6055
L 2363 6043
L 2374 6030
L 2382 6015
L 2388 5999
L 2388 5999
L 2405 5928
L 2418 5857
L 2418 5857
L 2426 5808
L 2433 5758
L 2433 5758
L 2445 5648
L 2445 5648
L 2454 5543
L 2454 5543
L 2456 5503
L 2457 5463
L 2457 5463
L 2458 5399
L 2458 5399
L 2460 5372
L 2463 5345
L 2463 5345
L 2470 5302
L 2470 5302
L 2471 5299
L 2475 5296
L 2478 5296
L 2478 5296
L 2486 5296
L 2493 5299
L 2493 5299
L 2551 5324
L 2551 5324
L 2619 5356
L 2619 5356
L 2696 5394
L 2696 5394
L 2740 5414
L 2785 5431
L 2831 5446
L 2878 5458
L 2925 5467
L 2973 5472
L 3021 5475
L 3069 5475
L 3069 5475
L 3133 5472
L 3196 5465
L 3259 5456
L 3322 5443
L 3383 5428
L 3444 5410
L 3504 5389
L 3504 5389
L 3566 5364
L 3627 5337
L 3686 5307
L 3745 5275
L 3801 5239
L 3856 5202
L 3909 5162
L 3909 5162
L 3957 5122
L 4003 5080
L 4047 5035
L 4088 4988
L 4126 4939
L 4162 4888
L 4195 4835
L 4195 4835
L 4225 4780
L 4254 4724
L 4281 4667
L 4305 4609
L 4328 4551
L 4328 4551
L 4345 4498
L 4360 4444
L 4371 4389
L 4380 4334
L 4386 4278
L 4386 4278
L 4389 4225
L 4389 4172
L 4386 4119
L 4380 4066
L 4371 4014
L 4371 4014
L 4358 3960
L 4343 3907
L 4326 3855
L 4306 3803
L 4283 3753
L 4283 3753
L 4263 3714
L 4241 3675
L 4217 3638
L 4217 3638
L 4190 3599
L 4161 3560
L 4131 3523
L 4131 3523
L 4102 3488
L 4071 3455
L 4039 3423
L 4039 3423
L 4012 3399
L 3984 3377
L 3954 3357
L 3954 3357
L 3906 3329
L 3856 3304
L 3805 3282
L 3753 3263
L 3753 3263
L 3696 3246
L 3638 3231
L 3580 3220
L 3521 3211
L 3521 3211
L 3461 3204
L 3400 3201
L 3340 3200
L 3279 3202
L 3279 3202
L 3222 3206
L 3165 3214
L 3108 3225
L 3052 3239
Z
"/>
</g>
<g transform="matrix(0.071919,0.000000,0.000000,0.072007,0.000000,0.000000) " fill="none" stroke="#000000" stroke-width="1" stroke-linejoin="round" stroke-linecap="round" >
<path d="
M 3607 3805
L 3607 3805
L 3640 3823
L 3671 3843
L 3702 3864
L 3731 3887
L 3731 3887
L 3753 3908
L 3773 3931
L 3790 3955
L 3805 3981
L 3805 3981
L 3819 4012
L 3830 4044
L 3838 4076
L 3843 4110
L 3843 4110
L 3849 4174
L 3853 4239
L 3854 4304
L 3854 4304
L 3853 4342
L 3849 4380
L 3843 4418
L 3843 4418
L 3835 4452
L 3824 4485
L 3810 4516
L 3810 4516
L 3792 4550
L 3771 4583
L 3748 4614
L 3748 4614
L 3716 4652
L 3682 4689
L 3648 4725
L 3648 4725
L 3610 4761
L 3571 4797
L 3530 4831
L 3530 4831
L 3500 4854
L 3467 4874
L 3433 4891
L 3433 4891
L 3399 4904
L 3364 4915
L 3328 4921
L 3328 4921
L 3282 4927
L 3236 4930
L 3190 4931
L 3190 4931
L 3147 4930
L 3105 4927
L 3062 4923
L 3062 4923
L 3028 4917
L 2994 4909
L 2960 4898
L 2960 4898
L 2930 4885
L 2901 4870
L 2873 4852
L 2873 4852
L 2843 4831
L 2815 4807
L 2789 4782
L 2789 4782
L 2762 4754
L 2739 4724
L 2717 4692
L 2698 4658
L 2682 4624
L 2668 4588
L 2658 4551
L 2658 4551
L 2649 4511
L 2643 4471
L 2640 4430
L 2639 4390
L 2641 4349
L 2645 4309
L 2653 4269
L 2653 4269
L 2663 4228
L 2676 4187
L 2691 4147
L 2708 4109
L 2728 4071
L 2750 4035
L 2775 4000
L 2775 4000
L 2801 3967
L 2830 3935
L 2860 3906
L 2892 3878
L 2926 3852
L 2961 3828
L 2997 3807
L 2997 3807
L 3034 3788
L 3072 3772
L 3111 3757
L 3150 3744
L 3150 3744
L 3187 3735
L 3224 3728
L 3262 3724
L 3299 3723
L 3299 3723
L 3338 3724
L 3375 3728
L 3413 3734
L 3450 3743
L 3450 3743
L 3490 3756
L 3530 3770
L 3569 3786
L 3607 3805
Z
"/>
</g>
<g transform="matrix(0.071919,0.000000,0.000000,0.072007,0.000000,0.000000) " fill="none" stroke="#000000" stroke-width="1" stroke-linejoin="round" stroke-linecap="round" >
<path d="
M 5570 3227
L 5570 3227
L 5521 3240
L 5472 3256
L 5425 3274
L 5378 3294
L 5332 3316
L 5332 3316
L 5271 3350
L 5211 3386
L 5153 3424
L 5097 3466
L 5097 3466
L 5042 3510
L 4988 3557
L 4937 3606
L 4888 3657
L 4888 3657
L 4853 3697
L 4820 3739
L 4788 3782
L 4758 3826
L 4730 3871
L 4730 3871
L 4700 3926
L 4672 3982
L 4648 4039
L 4626 4097
L 4606 4157
L 4606 4157
L 4591 4216
L 4578 4276
L 4568 4336
L 4561 4397
L 4558 4458
L 4558 4458
L 4558 4517
L 4560 4576
L 4566 4634
L 4576 4692
L 4588 4750
L 4588 4750
L 4600 4794
L 4614 4838
L 4631 4881
L 4650 4924
L 4671 4965
L 4694 5005
L 4694 5005
L 4720 5045
L 4749 5083
L 4779 5120
L 4812 5154
L 4846 5187
L 4883 5218
L 4921 5247
L 4921 5247
L 4971 5281
L 5024 5313
L 5078 5342
L 5133 5369
L 5190 5393
L 5247 5414
L 5247 5414
L 5306 5432
L 5365 5447
L 5426 5459
L 5487 5468
L 5548 5474
L 5609 5477
L 5609 5477
L 5657 5477
L 5705 5475
L 5753 5469
L 5800 5461
L 5847 5451
L 5893 5437
L 5939 5421
L 5939 5421
L 5965 5410
L 5990 5396
L 6014 5379
L 6014 5379
L 6029 5366
L 6043 5351
L 6055 5336
L 6065 5319
L 6065 5319
L 6080 5290
L 6092 5259
L 6101 5228
L 6101 5228
L 6117 5155
L 6130 5082
L 6130 5082
L 6137 5026
L 6144 4971
L 6144 4971
L 6148 4922
L 6150 4873
L 6150 4873
L 6151 4832
L 6151 4792
L 6151 4792
L 6150 4783
L 6147 4775
L 6141 4767
L 6141 4767
L 6135 4763
L 6128 4761
L 6120 4761
L 6120 4761
L 6099 4767
L 6078 4774
L 6078 4774
L 6052 4786
L 6026 4799
L 6026 4799
L 5998 4816
L 5971 4834
L 5971 4834
L 5941 4853
L 5910 4869
L 5877 4883
L 5844 4894
L 5844 4894
L 5801 4905
L 5759 4914
L 5716 4921
L 5672 4926
L 5672 4926
L 5628 4930
L 5583 4931
L 5539 4930
L 5494 4927
L 5494 4927
L 5456 4923
L 5419 4916
L 5382 4906
L 5345 4893
L 5345 4893
L 5320 4882
L 5296 4868
L 5274 4851
L 5254 4832
L 5236 4811
L 5236 4811
L 5210 4774
L 5186 4736
L 5165 4696
L 5146 4654
L 5146 4654
L 5128 4609
L 5114 4563
L 5102 4516
L 5093 4468
L 5093 4468
L 5089 4434
L 5087 4399
L 5087 4365
L 5090 4331
L 5095 4296
L 5095 4296
L 5104 4256
L 5116 4216
L 5132 4177
L 5150 4140
L 5170 4104
L 5170 4104
L 5195 4066
L 5223 4029
L 5252 3994
L 5284 3961
L 5317 3930
L 5317 3930
L 5352 3899
L 5389 3871
L 5428 3845
L 5468 3821
L 5509 3799
L 5509 3799
L 5550 3781
L 5591 3765
L 5633 3752
L 5676 3742
L 5720 3735
L 5720 3735
L 5763 3730
L 5806 3727
L 5849 3726
L 5849 3726
L 5882 3727
L 5914 3731
L 5945 3738
L 5945 3738
L 5975 3748
L 6004 3761
L 6031 3776
L 6031 3776
L 6065 3799
L 6097 3823
L 6129 3849
L 6129 3849
L 6159 3876
L 6187 3905
L 6214 3936
L 6214 3936
L 6234 3962
L 6251 3990
L 6266 4020
L 6266 4020
L 6278 4053
L 6287 4087
L 6293 4122
L 6293 4122
L 6299 4170
L 6303 4218
L 6305 4266
L 6305 4266
L 6305 4333
L 6304 4400
L 6304 4400
L 6299 4493
L 6294 4586
L 6294 4586
L 6287 4687
L 6279 4788
L 6279 4788
L 6270 4882
L 6260 4977
L 6208 5417
L 6459 5417
L 6459 5417
L 6507 5416
L 6555 5414
L 6555 5414
L 6596 5410
L 6637 5404
L 6637 5404
L 6667 5397
L 6698 5389
L 6698 5389
L 6705 5386
L 6710 5379
L 6712 5371
L 6712 5371
L 6715 5338
L 6715 5338
L 6736 5170
L 6736 5170
L 6761 4973
L 6761 4973
L 6790 4749
L 6790 4749
L 6805 4631
L 6816 4513
L 6816 4513
L 6825 4397
L 6832 4281
L 6832 4281
L 6835 4181
L 6836 4081
L 6836 4081
L 6835 4043
L 6831 4004
L 6825 3966
L 6825 3966
L 6813 3919
L 6800 3872
L 6783 3826
L 6765 3781
L 6744 3737
L 6720 3694
L 6694 3652
L 6666 3613
L 6666 3613
L 6630 3567
L 6592 3524
L 6551 3483
L 6508 3445
L 6463 3409
L 6416 3375
L 6367 3344
L 6367 3344
L 6315 3316
L 6262 3290
L 6207 3267
L 6152 3248
L 6095 3231
L 6037 3218
L 5979 3208
L 5979 3208
L 5921 3201
L 5862 3197
L 5803 3196
L 5744 3199
L 5685 3205
L 5627 3215
L 5570 3227
Z
"/>
</g>
<g transform="matrix(0.071919,0.000000,0.000000,0.072007,0.000000,0.000000) " fill="none" stroke="#000000" stroke-width="1" stroke-linejoin="round" stroke-linecap="round" >
<path d="
M 7527 3316
L 7527 3316
L 7500 3328
L 7474 3342
L 7448 3358
L 7448 3358
L 7406 3388
L 7365 3420
L 7365 3420
L 7327 3454
L 7290 3489
L 7290 3489
L 7271 3511
L 7253 3533
L 7236 3557
L 7236 3557
L 7221 3582
L 7208 3608
L 7197 3635
L 7188 3662
L 7188 3662
L 7160 3761
L 7135 3861
L 7135 3861
L 7117 3944
L 7100 4027
L 7085 4111
L 7085 4111
L 7062 4256
L 7041 4400
L 7041 4400
L 7005 4674
L 7005 4674
L 6970 4931
L 6970 4931
L 6939 5149
L 6939 5149
L 6923 5250
L 6923 5250
L 6918 5283
L 6915 5317
L 6914 5351
L 6914 5351
L 6915 5363
L 6919 5375
L 6926 5386
L 6936 5394
L 6936 5394
L 6949 5402
L 6963 5408
L 6978 5412
L 6994 5414
L 6994 5414
L 7078 5416
L 7163 5417
L 7431 5417
L 7467 5159
L 7467 5159
L 7486 5024
L 7486 5024
L 7515 4816
L 7515 4816
L 7547 4582
L 7547 4582
L 7578 4354
L 7653 3807
L 7864 3787
L 7864 3787
L 7906 3782
L 7948 3774
L 7948 3774
L 7988 3764
L 8027 3752
L 8027 3752
L 8058 3739
L 8089 3725
L 8089 3725
L 8101 3717
L 8112 3707
L 8121 3696
L 8121 3696
L 8131 3677
L 8138 3656
L 8138 3656
L 8146 3622
L 8153 3588
L 8153 3588
L 8159 3548
L 8163 3508
L 8163 3508
L 8166 3468
L 8167 3428
L 8167 3428
L 8165 3368
L 8161 3308
L 8161 3308
L 8158 3294
L 8153 3281
L 8145 3269
L 8135 3259
L 8135 3259
L 8123 3250
L 8109 3243
L 8095 3238
L 8080 3236
L 8080 3236
L 8010 3233
L 7940 3232
L 7940 3232
L 7889 3234
L 7839 3239
L 7839 3239
L 7782 3247
L 7725 3258
L 7725 3258
L 7669 3270
L 7614 3284
L 7614 3284
L 7570 3298
L 7527 3316
Z
"/>
</g>
</g >
</g >
</svg>
