<?xml version="1.0" standalone="no"?>
<!DOCTYPE svg PUBLIC "-//W3C//DTD SVG 1.1//EN"
  "http://www.w3.org/Graphics/SVG/1.1/DTD/svg11.dtd">
<svg version="1.1" xmlns="http://www.w3.org/2000/svg" xmlns:xlink="http://www.w3.org/1999/xlink">
<title></title>
<g xml:space='preserve' >
<clipPath id="clippath0" transform="matrix(0.071919,0.000000,0.000000,0.072012,0.000000,0.000000) "  >
<path d="
M 0 0
L 0 0
L 0 6053
L 11706 6053
L 11706 0
Z
" style="clip-rule:nonzero"/>
</clipPath>
<g style="clip-path:url(#clippath0)">
<g transform="matrix(0.071919,0.000000,0.000000,0.072012,0.000000,0.000000) " fill="none" stroke="#000000" stroke-width="1" stroke-linejoin="round" stroke-linecap="round" >
<path d="
M 9169 42
L 9169 42
L 9142 55
L 9117 72
L 9117 72
L 9091 93
L 9067 116
L 9067 116
L 9043 142
L 9022 170
L 9022 170
L 9004 198
L 8988 228
L 8988 228
L 8976 254
L 8966 281
L 8957 309
L 8957 309
L 8936 390
L 8915 472
L 8915 472
L 8892 568
L 8870 665
L 8870 665
L 8849 767
L 8830 869
L 8830 869
L 8794 1064
L 8794 1064
L 8763 1232
L 8763 1232
L 8737 1380
L 8737 1380
L 8735 1397
L 8735 1397
L 8734 1402
L 8731 1406
L 8727 1408
L 8727 1408
L 8563 1466
L 8563 1466
L 8468 1499
L 8373 1530
L 8373 1530
L 8149 1602
L 8149 1602
L 8007 1648
L 7866 1695
L 7725 1744
L 7725 1744
L 7670 1765
L 7616 1790
L 7563 1817
L 7512 1847
L 7512 1847
L 7487 1865
L 7463 1885
L 7442 1907
L 7423 1931
L 7405 1956
L 7405 1956
L 7392 1982
L 7381 2009
L 7373 2037
L 7369 2066
L 7367 2095
L 7367 2095
L 7368 2124
L 7372 2153
L 7379 2181
L 7387 2209
L 7399 2236
L 7399 2236
L 7413 2263
L 7429 2289
L 7447 2314
L 7467 2337
L 7489 2359
L 7489 2359
L 7526 2392
L 7566 2423
L 7608 2451
L 7652 2477
L 7652 2477
L 7738 2522
L 7825 2565
L 7913 2605
L 7913 2605
L 8052 2665
L 8052 2665
L 8176 2716
L 8176 2716
L 8282 2756
L 8282 2756
L 8295 2760
L 8310 2761
L 8310 2761
L 8325 2760
L 8341 2757
L 8355 2752
L 8369 2745
L 8369 2745
L 8484 2674
L 8598 2603
L 8598 2603
L 8831 2455
L 8831 2455
L 8838 2448
L 8844 2440
L 8848 2431
L 8849 2421
L 8849 2421
L 8848 2417
L 8845 2412
L 8841 2410
L 8841 2410
L 8737 2363
L 8737 2363
L 8675 2336
L 8613 2311
L 8613 2311
L 8467 2253
L 8467 2253
L 8321 2196
L 8321 2196
L 8261 2171
L 8202 2145
L 8202 2145
L 8104 2100
L 8104 2100
L 8101 2097
L 8100 2093
L 8102 2090
L 8102 2090
L 8110 2084
L 8118 2080
L 8118 2080
L 8263 2030
L 8263 2030
L 8430 1975
L 8430 1975
L 8625 1912
L 9130 1753
L 9216 1264
L 9216 1264
L 9250 1074
L 9250 1074
L 9281 907
L 9281 907
L 9308 765
L 9308 765
L 9311 750
L 9316 734
L 9316 734
L 9318 731
L 9322 729
L 9326 729
L 9330 732
L 9330 732
L 9361 773
L 9392 814
L 9392 814
L 9430 869
L 9467 925
L 9467 925
L 9511 995
L 9555 1065
L 9555 1065
L 9644 1211
L 9644 1211
L 9725 1343
L 9725 1343
L 9794 1453
L 9794 1453
L 9818 1490
L 9818 1490
L 9826 1498
L 9836 1505
L 9847 1510
L 9859 1512
L 9859 1512
L 9886 1512
L 9914 1511
L 9941 1508
L 9941 1508
L 9988 1500
L 10034 1491
L 10080 1480
L 10080 1480
L 10215 1446
L 10350 1411
L 10350 1411
L 10541 1361
L 10541 1361
L 10706 1321
L 10706 1321
L 10850 1288
L 10850 1288
L 10860 1287
L 10870 1289
L 10870 1289
L 10873 1292
L 10874 1296
L 10873 1301
L 10873 1301
L 10820 1374
L 10820 1374
L 10787 1418
L 10752 1462
L 10752 1462
L 10710 1514
L 10666 1565
L 10666 1565
L 10569 1678
L 10569 1678
L 10467 1798
L 10467 1798
L 10374 1908
L 10374 1908
L 10309 1986
L 10180 2142
L 10411 2568
L 10411 2568
L 10499 2732
L 10499 2732
L 10535 2802
L 10570 2873
L 10570 2873
L 10630 2996
L 10630 2996
L 10631 3001
L 10630 3006
L 10627 3010
L 10627 3010
L 10623 3013
L 10618 3014
L 10613 3014
L 10613 3014
L 10513 2992
L 10513 2992
L 10455 2978
L 10396 2963
L 10396 2963
L 10261 2926
L 10261 2926
L 10126 2889
L 10126 2889
L 10068 2874
L 10010 2860
L 10010 2860
L 9910 2837
L 9910 2837
L 9905 2837
L 9901 2839
L 9897 2841
L 9897 2841
L 9891 2849
L 9888 2857
L 9886 2866
L 9886 2876
L 9886 2876
L 9922 3086
L 9922 3086
L 9940 3189
L 9960 3291
L 9960 3291
L 9965 3309
L 9973 3325
L 9984 3340
L 9984 3340
L 9999 3354
L 10016 3366
L 10034 3375
L 10053 3383
L 10053 3383
L 10233 3435
L 10413 3486
L 10413 3486
L 10586 3534
L 10760 3580
L 10760 3580
L 10795 3587
L 10831 3593
L 10866 3596
L 10902 3597
L 10902 3597
L 10940 3596
L 10978 3592
L 11015 3585
L 11015 3585
L 11038 3579
L 11061 3570
L 11083 3560
L 11104 3548
L 11104 3548
L 11123 3534
L 11141 3519
L 11158 3502
L 11173 3483
L 11173 3483
L 11193 3453
L 11211 3421
L 11226 3388
L 11226 3388
L 11240 3352
L 11252 3315
L 11252 3315
L 11257 3296
L 11260 3277
L 11260 3258
L 11260 3258
L 11260 3238
L 11257 3218
L 11253 3199
L 11253 3199
L 11241 3157
L 11227 3116
L 11227 3116
L 11212 3075
L 11195 3036
L 11195 3036
L 11128 2897
L 11128 2897
L 11088 2817
L 11048 2737
L 11048 2737
L 10962 2574
L 10962 2574
L 10880 2421
L 10880 2421
L 10812 2287
L 10812 2287
L 10753 2171
L 10753 2171
L 10750 2162
L 10749 2152
L 10749 2152
L 10750 2142
L 10755 2134
L 10755 2134
L 10858 2008
L 10858 2008
L 10977 1865
L 10977 1865
L 11119 1700
L 11119 1700
L 11248 1551
L 11374 1400
L 11374 1400
L 11430 1330
L 11484 1260
L 11536 1187
L 11536 1187
L 11570 1136
L 11603 1084
L 11633 1031
L 11633 1031
L 11645 1006
L 11653 981
L 11658 955
L 11660 928
L 11660 928
L 11659 908
L 11655 888
L 11648 869
L 11639 851
L 11639 851
L 11625 831
L 11610 812
L 11593 795
L 11574 779
L 11574 779
L 11553 763
L 11531 750
L 11508 738
L 11484 727
L 11484 727
L 11461 720
L 11437 714
L 11412 711
L 11387 710
L 11387 710
L 11362 710
L 11337 713
L 11311 717
L 11311 717
L 11221 736
L 11131 756
L 11131 756
L 11023 781
L 10916 807
L 10916 807
L 10800 837
L 10684 867
L 10684 867
L 10460 927
L 10460 927
L 10365 951
L 10269 974
L 10269 974
L 10102 1014
L 10102 1014
L 10098 1014
L 10093 1013
L 10090 1010
L 10090 1010
L 10081 997
L 10081 997
L 10006 875
L 10006 875
L 9921 734
L 9921 734
L 9822 571
L 9822 571
L 9771 487
L 9719 404
L 9719 404
L 9671 329
L 9622 255
L 9622 255
L 9539 132
L 9539 132
L 9521 110
L 9502 91
L 9502 91
L 9478 71
L 9452 54
L 9425 38
L 9425 38
L 9399 27
L 9373 18
L 9345 13
L 9345 13
L 9317 10
L 9289 10
L 9260 14
L 9260 14
L 9229 21
L 9199 30
L 9169 42
Z
"/>
</g>
<g transform="matrix(0.071919,0.000000,0.000000,0.072012,0.000000,0.000000) " fill="none" stroke="#000000" stroke-width="1" stroke-linejoin="round" stroke-linecap="round" >
<path d="
M 1164 2433
L 1164 2433
L 1119 2451
L 1075 2471
L 1032 2493
L 991 2517
L 950 2543
L 950 2543
L 900 2579
L 852 2617
L 805 2658
L 761 2701
L 761 2701
L 721 2745
L 683 2792
L 648 2840
L 616 2891
L 616 2891
L 594 2929
L 574 2968
L 557 3009
L 542 3050
L 530 3093
L 530 3093
L 520 3135
L 513 3178
L 510 3222
L 509 3266
L 511 3309
L 511 3309
L 517 3353
L 525 3397
L 537 3440
L 551 3482
L 568 3523
L 568 3523
L 592 3573
L 619 3622
L 648 3669
L 679 3715
L 712 3759
L 712 3759
L 773 3834
L 835 3907
L 900 3979
L 965 4050
L 965 4050
L 1022 4110
L 1077 4170
L 1077 4170
L 1129 4229
L 1180 4289
L 1180 4289
L 1223 4340
L 1264 4392
L 1264 4392
L 1285 4420
L 1302 4450
L 1302 4450
L 1313 4474
L 1321 4499
L 1327 4524
L 1331 4550
L 1332 4576
L 1330 4602
L 1330 4602
L 1326 4628
L 1320 4654
L 1311 4679
L 1299 4703
L 1286 4726
L 1271 4748
L 1271 4748
L 1248 4774
L 1223 4798
L 1195 4819
L 1166 4837
L 1135 4852
L 1135 4852
L 1101 4865
L 1066 4876
L 1030 4883
L 993 4887
L 957 4889
L 957 4889
L 932 4887
L 908 4884
L 885 4879
L 862 4871
L 862 4871
L 830 4858
L 801 4841
L 773 4822
L 773 4822
L 744 4797
L 717 4770
L 693 4741
L 693 4741
L 668 4707
L 646 4670
L 625 4633
L 563 4510
L 298 4643
L 298 4643
L 247 4669
L 197 4696
L 197 4696
L 154 4721
L 111 4747
L 111 4747
L 43 4791
L 43 4791
L 38 4796
L 34 4802
L 33 4809
L 33 4809
L 35 4833
L 39 4857
L 47 4879
L 47 4879
L 72 4938
L 100 4995
L 100 4995
L 131 5055
L 166 5113
L 166 5113
L 185 5143
L 207 5171
L 229 5199
L 229 5199
L 256 5226
L 283 5253
L 312 5278
L 343 5301
L 343 5301
L 374 5322
L 407 5341
L 441 5358
L 475 5373
L 475 5373
L 513 5387
L 551 5400
L 590 5410
L 630 5417
L 630 5417
L 690 5426
L 749 5431
L 810 5434
L 810 5434
L 869 5434
L 929 5431
L 989 5425
L 1048 5417
L 1048 5417
L 1103 5407
L 1158 5394
L 1211 5378
L 1264 5359
L 1264 5359
L 1315 5338
L 1364 5315
L 1412 5289
L 1458 5260
L 1458 5260
L 1504 5228
L 1548 5194
L 1590 5158
L 1630 5120
L 1630 5120
L 1670 5078
L 1709 5033
L 1744 4986
L 1777 4938
L 1808 4888
L 1808 4888
L 1834 4839
L 1858 4788
L 1878 4736
L 1895 4682
L 1909 4628
L 1909 4628
L 1919 4576
L 1926 4524
L 1929 4471
L 1929 4418
L 1925 4365
L 1925 4365
L 1920 4323
L 1912 4282
L 1901 4241
L 1888 4201
L 1872 4162
L 1855 4124
L 1855 4124
L 1839 4096
L 1822 4069
L 1803 4042
L 1803 4042
L 1752 3975
L 1699 3909
L 1699 3909
L 1636 3833
L 1572 3759
L 1572 3759
L 1505 3684
L 1436 3610
L 1436 3610
L 1360 3528
L 1286 3444
L 1212 3360
L 1212 3360
L 1185 3326
L 1161 3291
L 1139 3254
L 1120 3215
L 1120 3215
L 1112 3195
L 1107 3174
L 1105 3152
L 1106 3131
L 1110 3109
L 1110 3109
L 1117 3088
L 1126 3067
L 1137 3048
L 1151 3030
L 1167 3014
L 1167 3014
L 1184 3001
L 1203 2990
L 1203 2990
L 1229 2979
L 1256 2970
L 1256 2970
L 1285 2962
L 1315 2956
L 1315 2956
L 1343 2953
L 1372 2951
L 1372 2951
L 1409 2953
L 1445 2958
L 1445 2958
L 1466 2963
L 1485 2970
L 1504 2979
L 1504 2979
L 1524 2991
L 1543 3004
L 1560 3019
L 1560 3019
L 1595 3053
L 1627 3088
L 1747 3225
L 1888 3127
L 1888 3127
L 1950 3083
L 1950 3083
L 2020 3031
L 2020 3031
L 2087 2980
L 2087 2980
L 2139 2939
L 2250 2850
L 2139 2709
L 2139 2709
L 2114 2679
L 2087 2650
L 2087 2650
L 2055 2618
L 2022 2587
L 2022 2587
L 1988 2558
L 1954 2530
L 1954 2530
L 1925 2509
L 1895 2490
L 1895 2490
L 1859 2470
L 1822 2453
L 1783 2439
L 1743 2428
L 1743 2428
L 1693 2417
L 1642 2408
L 1591 2401
L 1540 2396
L 1540 2396
L 1487 2393
L 1435 2392
L 1383 2393
L 1331 2396
L 1331 2396
L 1288 2401
L 1246 2409
L 1204 2420
L 1164 2433
Z
"/>
</g>
<g transform="matrix(0.071919,0.000000,0.000000,0.072012,0.000000,0.000000) " fill="none" stroke="#000000" stroke-width="1" stroke-linejoin="round" stroke-linecap="round" >
<path d="
M 8675 2676
L 8675 2676
L 8412 2857
L 8381 3104
L 8381 3104
L 8362 3253
L 8362 3253
L 8321 3565
L 8321 3565
L 8272 3934
L 8272 3934
L 8220 4325
L 8220 4325
L 8170 4702
L 8170 4702
L 8127 5026
L 8127 5026
L 8091 5310
L 8091 5310
L 8090 5326
L 8089 5342
L 8089 5342
L 8090 5352
L 8095 5361
L 8102 5369
L 8111 5374
L 8121 5376
L 8121 5376
L 8236 5381
L 8352 5384
L 8352 5384
L 8467 5384
L 8582 5381
L 8582 5381
L 8595 5380
L 8608 5375
L 8620 5369
L 8630 5360
L 8638 5349
L 8638 5349
L 8644 5336
L 8648 5322
L 8648 5322
L 8670 5193
L 8670 5193
L 8694 5040
L 8694 5040
L 8718 4865
L 8718 4865
L 8782 4380
L 8782 4380
L 8786 4360
L 8792 4339
L 8800 4320
L 8810 4301
L 8810 4301
L 8815 4295
L 8821 4291
L 8829 4289
L 8837 4290
L 8844 4293
L 8849 4299
L 8849 4299
L 8904 4376
L 8956 4456
L 8956 4456
L 9026 4566
L 9026 4566
L 9125 4718
L 9125 4718
L 9233 4881
L 9233 4881
L 9334 5032
L 9573 5383
L 9895 5383
L 9895 5383
L 9957 5383
L 10018 5381
L 10018 5381
L 10070 5379
L 10122 5375
L 10122 5375
L 10207 5366
L 10207 5366
L 10212 5364
L 10215 5360
L 10217 5355
L 10217 5355
L 10215 5344
L 10210 5335
L 10210 5335
L 10073 5134
L 10073 5134
L 9915 4907
L 9915 4907
L 9727 4643
L 9237 3960
L 9538 3630
L 9840 3299
L 9794 3049
L 9794 3049
L 9785 3001
L 9774 2954
L 9774 2954
L 9765 2913
L 9753 2873
L 9753 2873
L 9733 2808
L 9733 2808
L 9730 2804
L 9726 2801
L 9721 2800
L 9721 2800
L 9714 2800
L 9708 2803
L 9703 2807
L 9703 2807
L 9586 2928
L 9586 2928
L 9519 2999
L 9453 3070
L 9453 3070
L 9300 3238
L 9300 3238
L 9225 3321
L 9149 3403
L 9149 3403
L 9084 3470
L 9018 3535
L 9018 3535
L 8910 3639
L 8910 3639
L 8905 3642
L 8900 3642
L 8896 3639
L 8893 3635
L 8893 3635
L 8889 3617
L 8887 3600
L 8888 3581
L 8888 3581
L 8937 3169
L 8937 3169
L 8961 2979
L 8987 2789
L 8987 2789
L 8997 2719
L 9009 2650
L 9023 2581
L 9023 2581
L 9026 2563
L 9027 2544
L 9027 2544
L 9026 2531
L 9023 2518
L 9023 2518
L 9017 2509
L 9010 2502
L 9010 2502
L 9000 2497
L 8990 2495
L 8990 2495
L 8979 2496
L 8968 2499
L 8958 2503
L 8958 2503
L 8876 2549
L 8876 2549
L 8828 2577
L 8780 2607
L 8780 2607
L 8728 2641
L 8675 2676
Z
"/>
</g>
<g transform="matrix(0.071919,0.000000,0.000000,0.072012,0.000000,0.000000) " fill="none" stroke="#000000" stroke-width="1" stroke-linejoin="round" stroke-linecap="round" >
<path d="
M 3101 3181
L 3101 3181
L 3046 3196
L 2992 3213
L 2939 3233
L 2886 3255
L 2835 3280
L 2835 3280
L 2784 3307
L 2734 3336
L 2685 3368
L 2638 3401
L 2592 3436
L 2592 3436
L 2548 3474
L 2506 3513
L 2465 3554
L 2426 3596
L 2389 3640
L 2389 3640
L 2354 3686
L 2321 3732
L 2290 3780
L 2262 3830
L 2236 3880
L 2236 3880
L 2212 3932
L 2190 3984
L 2171 4038
L 2154 4092
L 2154 4092
L 2129 4184
L 2107 4277
L 2088 4371
L 2088 4371
L 2064 4508
L 2042 4646
L 2022 4785
L 2022 4785
L 1977 5136
L 1934 5487
L 1934 5487
L 1917 5623
L 1917 5623
L 1899 5753
L 1899 5753
L 1883 5865
L 1883 5865
L 1872 5925
L 1851 6029
L 2116 6029
L 2380 6029
L 2406 5811
L 2406 5811
L 2417 5715
L 2417 5715
L 2430 5606
L 2430 5606
L 2442 5501
L 2442 5501
L 2452 5419
L 2473 5245
L 2631 5324
L 2631 5324
L 2661 5338
L 2691 5350
L 2723 5362
L 2723 5362
L 2755 5371
L 2787 5379
L 2820 5385
L 2820 5385
L 2878 5394
L 2936 5398
L 2936 5398
L 3014 5401
L 3092 5402
L 3092 5402
L 3176 5401
L 3259 5398
L 3259 5398
L 3300 5395
L 3340 5390
L 3379 5383
L 3379 5383
L 3416 5375
L 3452 5365
L 3487 5353
L 3487 5353
L 3550 5328
L 3613 5301
L 3613 5301
L 3667 5274
L 3720 5244
L 3772 5212
L 3823 5178
L 3871 5141
L 3918 5102
L 3964 5061
L 3964 5061
L 4007 5018
L 4049 4972
L 4089 4925
L 4127 4876
L 4162 4825
L 4196 4773
L 4227 4719
L 4227 4719
L 4254 4666
L 4280 4612
L 4302 4556
L 4322 4500
L 4340 4443
L 4355 4385
L 4367 4326
L 4367 4326
L 4375 4271
L 4381 4215
L 4383 4159
L 4382 4104
L 4378 4048
L 4371 3992
L 4361 3937
L 4361 3937
L 4349 3886
L 4333 3835
L 4315 3785
L 4295 3736
L 4271 3689
L 4245 3642
L 4245 3642
L 4217 3597
L 4186 3553
L 4153 3511
L 4117 3471
L 4080 3433
L 4040 3397
L 4040 3397
L 3999 3364
L 3956 3332
L 3912 3303
L 3866 3276
L 3818 3252
L 3770 3230
L 3770 3230
L 3720 3211
L 3670 3195
L 3619 3181
L 3567 3171
L 3515 3163
L 3463 3159
L 3463 3159
L 3416 3156
L 3369 3156
L 3369 3156
L 3317 3157
L 3266 3159
L 3266 3159
L 3219 3163
L 3171 3168
L 3171 3168
L 3136 3173
L 3101 3181
Z
"/>
</g>
<g transform="matrix(0.071919,0.000000,0.000000,0.072012,0.000000,0.000000) " fill="none" stroke="#000000" stroke-width="1" stroke-linejoin="round" stroke-linecap="round" >
<path d="
M 3566 3730
L 3566 3730
L 3602 3751
L 3637 3774
L 3670 3801
L 3670 3801
L 3701 3830
L 3730 3861
L 3755 3894
L 3755 3894
L 3779 3930
L 3799 3967
L 3817 4006
L 3817 4006
L 3832 4047
L 3844 4089
L 3853 4132
L 3853 4132
L 3858 4175
L 3861 4218
L 3861 4218
L 3860 4244
L 3858 4269
L 3854 4294
L 3854 4294
L 3847 4322
L 3839 4349
L 3829 4376
L 3829 4376
L 3806 4430
L 3781 4483
L 3781 4483
L 3757 4529
L 3730 4573
L 3701 4616
L 3669 4657
L 3669 4657
L 3644 4686
L 3617 4713
L 3589 4739
L 3559 4763
L 3528 4785
L 3528 4785
L 3496 4805
L 3463 4822
L 3430 4838
L 3395 4851
L 3359 4863
L 3359 4863
L 3313 4874
L 3266 4883
L 3218 4888
L 3170 4889
L 3170 4889
L 3129 4888
L 3089 4885
L 3048 4879
L 3008 4872
L 3008 4872
L 2972 4862
L 2936 4850
L 2902 4836
L 2868 4819
L 2868 4819
L 2837 4801
L 2808 4781
L 2781 4758
L 2755 4734
L 2755 4734
L 2731 4707
L 2709 4679
L 2689 4650
L 2672 4619
L 2672 4619
L 2656 4585
L 2644 4551
L 2635 4515
L 2628 4479
L 2628 4479
L 2624 4437
L 2623 4394
L 2624 4352
L 2627 4310
L 2627 4310
L 2633 4266
L 2642 4222
L 2653 4179
L 2666 4137
L 2666 4137
L 2681 4097
L 2699 4058
L 2719 4020
L 2741 3984
L 2741 3984
L 2769 3946
L 2799 3910
L 2831 3876
L 2866 3845
L 2903 3817
L 2903 3817
L 2945 3790
L 2987 3765
L 3031 3743
L 3077 3724
L 3124 3708
L 3124 3708
L 3170 3696
L 3216 3686
L 3264 3680
L 3311 3676
L 3359 3676
L 3359 3676
L 3395 3679
L 3430 3684
L 3465 3691
L 3500 3702
L 3533 3715
L 3566 3730
Z
"/>
</g>
<g transform="matrix(0.071919,0.000000,0.000000,0.072012,0.000000,0.000000) " fill="none" stroke="#000000" stroke-width="1" stroke-linejoin="round" stroke-linecap="round" >
<path d="
M 5516 3197
L 5516 3197
L 5462 3215
L 5409 3235
L 5357 3257
L 5306 3281
L 5255 3308
L 5255 3308
L 5193 3344
L 5133 3384
L 5074 3426
L 5018 3471
L 5018 3471
L 4964 3518
L 4913 3568
L 4864 3620
L 4817 3675
L 4817 3675
L 4783 3719
L 4751 3765
L 4720 3812
L 4692 3860
L 4665 3909
L 4665 3909
L 4645 3952
L 4627 3996
L 4613 4041
L 4601 4087
L 4601 4087
L 4589 4145
L 4579 4203
L 4571 4261
L 4565 4320
L 4565 4320
L 4561 4379
L 4559 4439
L 4559 4498
L 4561 4558
L 4561 4558
L 4565 4607
L 4571 4657
L 4580 4706
L 4593 4754
L 4593 4754
L 4605 4796
L 4621 4836
L 4639 4875
L 4660 4914
L 4660 4914
L 4685 4955
L 4712 4996
L 4741 5036
L 4772 5074
L 4772 5074
L 4805 5111
L 4839 5147
L 4875 5182
L 4912 5215
L 4912 5215
L 4948 5243
L 4985 5269
L 5023 5293
L 5063 5314
L 5063 5314
L 5104 5334
L 5147 5351
L 5191 5365
L 5236 5376
L 5236 5376
L 5292 5387
L 5348 5396
L 5404 5404
L 5461 5409
L 5461 5409
L 5518 5412
L 5576 5413
L 5634 5413
L 5691 5410
L 5691 5410
L 5740 5405
L 5788 5398
L 5836 5388
L 5883 5375
L 5883 5375
L 5922 5362
L 5961 5345
L 5998 5326
L 5998 5326
L 6017 5314
L 6033 5299
L 6048 5282
L 6059 5263
L 6059 5263
L 6071 5237
L 6081 5210
L 6089 5182
L 6094 5154
L 6094 5154
L 6113 5025
L 6128 4895
L 6156 4654
L 6019 4759
L 6019 4759
L 5984 4783
L 5947 4805
L 5947 4805
L 5909 4825
L 5870 4841
L 5870 4841
L 5828 4855
L 5786 4866
L 5786 4866
L 5741 4875
L 5695 4881
L 5695 4881
L 5642 4885
L 5588 4887
L 5534 4888
L 5534 4888
L 5494 4886
L 5455 4880
L 5416 4871
L 5416 4871
L 5391 4864
L 5366 4854
L 5343 4842
L 5320 4828
L 5320 4828
L 5287 4805
L 5256 4780
L 5226 4752
L 5226 4752
L 5202 4726
L 5179 4698
L 5159 4669
L 5140 4638
L 5140 4638
L 5123 4605
L 5109 4571
L 5096 4536
L 5086 4501
L 5086 4501
L 5078 4465
L 5072 4428
L 5068 4390
L 5067 4353
L 5067 4353
L 5068 4316
L 5072 4280
L 5078 4243
L 5087 4207
L 5087 4207
L 5100 4164
L 5116 4122
L 5135 4081
L 5156 4041
L 5180 4003
L 5207 3966
L 5236 3932
L 5236 3932
L 5269 3898
L 5303 3865
L 5339 3835
L 5377 3808
L 5417 3782
L 5458 3759
L 5500 3739
L 5500 3739
L 5542 3721
L 5585 3707
L 5628 3695
L 5673 3686
L 5717 3679
L 5762 3676
L 5807 3675
L 5807 3675
L 5849 3678
L 5889 3683
L 5930 3692
L 5969 3705
L 6007 3720
L 6044 3739
L 6079 3760
L 6079 3760
L 6106 3780
L 6131 3801
L 6154 3824
L 6176 3849
L 6196 3876
L 6213 3904
L 6213 3904
L 6233 3941
L 6250 3980
L 6265 4020
L 6276 4060
L 6284 4102
L 6284 4102
L 6291 4159
L 6296 4217
L 6299 4275
L 6298 4333
L 6295 4391
L 6295 4391
L 6282 4538
L 6266 4685
L 6246 4832
L 6246 4832
L 6218 5033
L 6191 5234
L 6191 5234
L 6189 5258
L 6190 5282
L 6194 5306
L 6201 5329
L 6201 5329
L 6207 5343
L 6216 5354
L 6228 5364
L 6241 5370
L 6255 5373
L 6255 5373
L 6314 5379
L 6374 5382
L 6433 5383
L 6433 5383
L 6492 5382
L 6551 5378
L 6609 5371
L 6609 5371
L 6626 5367
L 6642 5360
L 6655 5350
L 6667 5338
L 6676 5323
L 6676 5323
L 6688 5297
L 6698 5269
L 6705 5241
L 6710 5212
L 6710 5212
L 6746 4948
L 6781 4684
L 6781 4684
L 6793 4584
L 6804 4483
L 6804 4483
L 6812 4384
L 6819 4285
L 6819 4285
L 6824 4199
L 6827 4113
L 6827 4113
L 6827 4079
L 6826 4046
L 6823 4012
L 6823 4012
L 6817 3969
L 6808 3925
L 6798 3882
L 6786 3839
L 6786 3839
L 6773 3798
L 6757 3757
L 6739 3718
L 6720 3679
L 6720 3679
L 6699 3640
L 6675 3603
L 6650 3566
L 6624 3531
L 6624 3531
L 6584 3485
L 6542 3440
L 6498 3398
L 6498 3398
L 6465 3369
L 6430 3343
L 6394 3318
L 6357 3296
L 6357 3296
L 6299 3266
L 6239 3238
L 6178 3214
L 6178 3214
L 6115 3193
L 6052 3175
L 5988 3160
L 5988 3160
L 5944 3152
L 5900 3147
L 5856 3144
L 5812 3144
L 5812 3144
L 5780 3145
L 5748 3149
L 5748 3149
L 5709 3154
L 5669 3160
L 5669 3160
L 5628 3168
L 5587 3177
L 5587 3177
L 5551 3186
L 5516 3197
Z
"/>
</g>
<g transform="matrix(0.071919,0.000000,0.000000,0.072012,0.000000,0.000000) " fill="none" stroke="#000000" stroke-width="1" stroke-linejoin="round" stroke-linecap="round" >
<path d="
M 7499 3270
L 7499 3270
L 7469 3285
L 7439 3302
L 7411 3321
L 7384 3342
L 7384 3342
L 7342 3379
L 7303 3419
L 7265 3460
L 7265 3460
L 7230 3502
L 7198 3547
L 7168 3592
L 7168 3592
L 7152 3620
L 7139 3649
L 7128 3679
L 7120 3710
L 7120 3710
L 7112 3750
L 7106 3789
L 7106 3789
L 7071 4018
L 7071 4018
L 7032 4290
L 7032 4290
L 6991 4591
L 6991 4591
L 6966 4776
L 6943 4960
L 6943 4960
L 6930 5074
L 6920 5187
L 6920 5187
L 6915 5264
L 6912 5340
L 6912 5340
L 6913 5350
L 6917 5359
L 6924 5366
L 6932 5370
L 6932 5370
L 6946 5375
L 6961 5377
L 6961 5377
L 7029 5379
L 7029 5379
L 7111 5379
L 7111 5379
L 7199 5376
L 7422 5364
L 7520 4605
L 7520 4605
L 7559 4310
L 7559 4310
L 7577 4182
L 7597 4054
L 7597 4054
L 7632 3835
L 7632 3835
L 7635 3822
L 7640 3809
L 7646 3797
L 7646 3797
L 7652 3789
L 7660 3783
L 7669 3778
L 7669 3778
L 7694 3770
L 7719 3763
L 7719 3763
L 7751 3757
L 7784 3753
L 7784 3753
L 7821 3750
L 7859 3750
L 7859 3750
L 7895 3749
L 7932 3746
L 7932 3746
L 7965 3742
L 7999 3736
L 7999 3736
L 8026 3729
L 8053 3720
L 8053 3720
L 8063 3716
L 8072 3710
L 8079 3702
L 8079 3702
L 8089 3687
L 8095 3671
L 8095 3671
L 8105 3638
L 8113 3604
L 8113 3604
L 8122 3564
L 8129 3523
L 8129 3523
L 8136 3480
L 8141 3436
L 8166 3218
L 7890 3219
L 7890 3219
L 7833 3220
L 7776 3223
L 7776 3223
L 7718 3228
L 7661 3235
L 7661 3235
L 7611 3242
L 7561 3251
L 7561 3251
L 7540 3256
L 7520 3262
L 7499 3270
Z
"/>
</g>
</g >
</g >
</svg>
