<?xml version="1.0" encoding="UTF-8" ?>
<!DOCTYPE svg PUBLIC "-//W3C//DTD SVG 1.1//EN" "http://www.w3.org/Graphics/SVG/1.1/DTD/svg11.dtd">
<svg width="513pt" height="182pt" viewBox="0 0 513 182" version="1.1" xmlns="http://www.w3.org/2000/svg">
<path fill="#ffffff" d=" M 0.00 0.00 L 513.00 0.00 L 513.00 182.00 L 0.00 182.00 L 0.00 0.00 Z" />
<path fill="#e51937" d=" M 11.25 10.76 C 174.33 10.75 337.41 10.75 500.49 10.76 C 500.51 65.17 500.50 119.58 500.50 174.00 C 337.42 174.00 174.33 174.01 11.25 173.99 C 11.26 119.58 11.25 65.17 11.25 10.76 Z" />
<path fill="#ffffff" d=" M 58.19 47.20 C 62.49 42.25 70.28 41.10 76.03 44.00 C 80.12 46.05 82.33 50.37 83.65 54.55 C 90.97 78.54 98.24 102.55 105.59 126.53 C 113.25 102.35 120.25 77.96 127.75 53.73 C 129.19 49.45 132.06 45.33 136.35 43.54 C 141.88 41.37 148.99 42.37 152.92 47.09 C 155.75 50.27 156.58 54.59 157.59 58.59 C 163.95 83.47 170.33 108.34 176.70 133.21 C 187.21 106.49 197.45 79.66 208.03 52.96 C 210.92 45.66 219.18 40.94 226.94 42.81 C 231.95 43.63 235.62 47.67 238.09 51.83 C 253.33 78.96 268.41 106.18 283.70 133.28 C 283.82 108.19 283.72 83.09 283.75 58.00 C 283.92 54.13 283.93 49.72 286.71 46.68 C 289.71 43.86 294.10 43.53 298.02 43.48 C 309.71 43.54 321.39 43.46 333.08 43.52 C 342.75 43.96 353.37 46.30 359.92 54.01 C 366.00 61.12 366.77 71.11 365.65 80.03 C 364.61 88.09 359.71 95.69 352.28 99.23 C 340.68 105.17 327.30 103.52 314.75 103.74 C 314.75 99.00 314.75 94.25 314.75 89.51 C 323.90 88.93 333.63 91.10 342.27 87.21 C 351.86 83.00 353.10 68.20 345.14 61.84 C 341.17 58.75 335.97 57.77 331.05 57.73 C 320.37 57.77 309.69 57.74 299.01 57.75 C 298.99 79.18 299.00 100.61 299.00 122.04 C 298.89 127.76 297.76 134.21 293.07 138.03 C 288.65 141.60 282.46 141.43 277.16 140.47 C 271.82 139.51 267.59 135.57 265.03 130.94 C 260.13 122.24 255.32 113.48 250.47 104.75 C 240.56 104.74 230.66 104.76 220.75 104.74 C 220.75 100.00 220.75 95.25 220.75 90.51 C 227.96 90.49 235.17 90.51 242.38 90.50 C 235.84 78.70 229.45 66.81 222.86 55.05 C 212.72 80.51 202.66 106.01 192.38 131.42 C 188.20 141.01 175.05 143.76 166.57 138.40 C 163.30 136.23 161.25 132.63 160.29 128.88 C 154.13 105.23 148.17 81.54 141.94 57.91 C 134.26 81.96 126.98 106.14 119.41 130.22 C 117.71 136.04 112.47 141.16 106.14 141.04 C 99.76 141.60 93.74 137.17 91.83 131.17 C 84.17 106.73 76.80 82.21 69.19 57.75 C 62.46 85.15 55.92 112.59 49.26 140.00 C 44.05 140.00 38.84 140.00 33.63 140.00 C 40.27 112.93 46.89 85.86 53.52 58.80 C 54.50 54.76 55.27 50.36 58.19 47.20 Z" />
<path fill="#ffffff" d=" M 376.85 48.15 C 377.69 45.07 380.92 43.29 383.98 43.48 C 399.31 43.54 414.65 43.45 429.99 43.53 C 439.03 43.96 448.83 45.92 455.47 52.56 C 461.22 58.04 463.25 66.33 463.04 74.04 C 463.16 82.09 459.84 90.29 453.57 95.45 C 449.81 98.67 445.10 100.47 440.37 101.70 C 449.36 114.45 458.29 127.24 467.28 139.99 C 461.12 140.01 454.96 140.00 448.81 140.00 C 440.16 127.90 431.49 115.82 422.82 103.74 C 413.96 103.76 405.11 103.74 396.25 103.75 C 396.24 115.83 396.25 127.91 396.25 139.99 C 391.08 140.00 385.92 140.00 380.75 140.00 C 380.75 123.17 380.75 106.34 380.75 89.51 C 396.51 89.49 412.26 89.49 428.01 89.51 C 433.46 89.52 439.30 88.23 443.32 84.32 C 448.72 78.57 448.66 68.51 443.21 62.81 C 439.41 59.25 434.06 57.88 428.96 57.75 C 413.75 57.66 398.53 57.90 383.32 57.65 C 378.59 57.75 375.09 52.50 376.85 48.15 Z" />
<path fill="#ffffff" d=" M 474.28 124.44 C 477.36 123.34 481.07 124.38 483.07 126.99 C 485.66 130.19 485.25 135.38 482.08 138.05 C 478.70 141.05 472.89 140.35 470.36 136.59 C 467.47 132.50 469.35 125.91 474.28 124.44 Z" />
<path fill="#e51937" d=" M 474.19 137.74 C 469.47 135.81 469.59 128.20 474.17 126.15 C 478.11 123.87 483.46 127.57 483.04 132.00 C 483.29 134.23 481.62 135.95 480.70 137.80 C 480.22 135.87 479.73 133.95 479.28 132.01 C 479.73 130.84 480.24 129.59 479.86 128.32 C 478.26 126.66 475.78 127.43 473.75 127.22 C 473.75 130.39 473.75 133.57 473.76 136.75 C 474.19 136.75 475.05 136.75 475.48 136.75 C 475.49 135.33 475.51 133.92 475.56 132.50 C 478.61 132.53 478.25 136.19 479.99 137.94 C 478.07 138.22 475.96 138.90 474.19 137.74 Z" />
<path fill="#e51937" d=" M 475.95 128.99 C 477.59 128.55 478.13 129.13 477.57 130.74 C 475.92 131.16 475.38 130.58 475.95 128.99 Z" />
</svg>
